<?xml version="1.0" encoding="UTF-8"?>
<!-- Generator: visioncortex VTracer 0.6.4 -->
<svg version="1.1" xmlns="http://www.w3.org/2000/svg" width="512" height="512">
<path d="M0 0 C12.21 0 24.42 0 37 0 C37.33 0.66 37.66 1.32 38 2 C40.534 5.334 43 5.391 47 6 C47.33 6.66 47.66 7.32 48 8 C48.825 8.165 49.65 8.33 50.5 8.5 C51.325 8.665 52.15 8.83 53 9 C53.33 9.66 53.66 10.32 54 11 C56.64 11 59.28 11 62 11 C62 10.34 62 9.68 62 9 C65.984 7.127 69.236 6.703 73.625 6.688 C75.315 6.662 75.315 6.662 77.039 6.637 C80 7 80 7 81.805 8.418 C82.199 8.94 82.594 9.462 83 10 C85.122 12.299 85.916 12.972 89 14 C89.634 18.041 90.124 21.907 90 26 C88.02 26.495 88.02 26.495 86 27 C86 27.66 86 28.32 86 29 C87.238 28.794 88.475 28.588 89.75 28.375 C93.136 27.95 95.146 27.914 98 30 C98.99 30.99 98.99 30.99 100 32 C100.846 32.165 101.691 32.33 102.562 32.5 C103.769 32.748 103.769 32.748 105 33 C105.33 33.66 105.66 34.32 106 35 C106.99 35.165 107.98 35.33 109 35.5 C109.99 35.665 110.98 35.83 112 36 C112.667 37.333 113.333 38.667 114 40 C115.734 40.561 115.734 40.561 118 41 C120.352 41.598 122.689 42.259 125 43 C125.33 43.66 125.66 44.32 126 45 C128.527 45.656 128.527 45.656 131 46 C131 46.66 131 47.32 131 48 C133.31 48.33 135.62 48.66 138 49 C137.67 49.66 137.34 50.32 137 51 C137.99 51 138.98 51 140 51 C140 51.99 140 52.98 140 54 C141.98 54.33 143.96 54.66 146 55 C146 55.66 146 56.32 146 57 C149.96 57.495 149.96 57.495 154 58 C154.33 59.98 154.66 61.96 155 64 C156.238 63.959 157.475 63.917 158.75 63.875 C163.622 63.875 165.981 65.321 170 68 C172.337 69.242 174.476 70.159 177 71 C177.33 71.99 177.66 72.98 178 74 C178.66 74.66 179.32 75.32 180 76 C180.66 76.66 181.32 77.32 182 78 C182.33 78 182.66 78 183 78 C183.33 80.97 183.66 83.94 184 87 C184.66 87 185.32 87 186 87 C185.996 87.847 185.993 88.693 185.989 89.566 C185.901 110.155 185.834 130.744 185.793 151.333 C185.772 161.289 185.744 171.246 185.698 181.203 C185.658 189.879 185.633 198.556 185.624 207.233 C185.618 211.829 185.606 216.424 185.577 221.02 C185.55 225.344 185.542 229.667 185.548 233.991 C185.546 235.58 185.538 237.168 185.523 238.756 C185.503 240.923 185.508 243.088 185.519 245.255 C185.515 246.468 185.512 247.681 185.508 248.931 C186.098 252.609 187.107 253.736 190 256 C190.735 256.38 191.47 256.761 192.227 257.152 C194.826 259.86 194.466 262.272 194.449 265.92 C194.425 266.792 194.4 267.664 194.375 268.562 C194.373 269.876 194.373 269.876 194.371 271.217 C194.281 277.719 194.281 277.719 192 280 C191.567 280.516 191.134 281.031 190.688 281.562 C188.544 283.388 186.752 283.628 184 284 C183.67 285.65 183.34 287.3 183 289 C181.02 289.33 179.04 289.66 177 290 C177 290.66 177 291.32 177 292 C175.329 292.433 175.329 292.433 173.625 292.875 C169.997 293.692 169.997 293.692 168 296 C165.325 297.715 163.024 298.992 160 300 C160 300.66 160 301.32 160 302 C158.02 302.33 156.04 302.66 154 303 C154 303.66 154 304.32 154 305 C152.391 305.433 152.391 305.433 150.75 305.875 C147.891 306.733 145.578 307.568 143 309 C141.7 309.65 140.387 310.277 139.062 310.875 C136.954 311.872 136.954 311.872 135.625 313.562 C133.296 315.623 131.025 315.664 128 316 C128 316.66 128 317.32 128 318 C125.094 319.257 123.204 320 120 320 C119.67 320.66 119.34 321.32 119 322 C118.67 322.66 118.34 323.32 118 324 C115.673 324.689 113.339 325.355 111 326 C110.01 326.66 109.02 327.32 108 328 C105.674 329.551 103.499 330.791 101 332 C100.34 332.33 99.68 332.66 99 333 C97.979 333.464 97.979 333.464 96.938 333.938 C94.838 334.85 94.838 334.85 94 337 C91.438 337.625 91.438 337.625 89 338 C88.67 338.99 88.34 339.98 88 341 C86.948 341.103 85.896 341.206 84.812 341.312 C81.073 341.987 79.016 342.759 76 345 C74.062 347.773 74.062 347.773 73 350 C65.966 351.37 58.888 351.221 51.75 351.25 C49.832 351.281 49.832 351.281 47.875 351.312 C46.653 351.318 45.431 351.323 44.172 351.328 C43.059 351.337 41.946 351.347 40.8 351.356 C37.656 350.956 36.973 350.355 35 348 C34.34 348 33.68 348 33 348 C33 347.01 33 346.02 33 345 C32.408 345.035 31.817 345.07 31.207 345.105 C26.14 345.279 23.242 345.03 19 342 C17.674 341.638 16.341 341.303 15 341 C13.651 340.365 12.315 339.702 11 339 C10.34 338.67 9.68 338.34 9 338 C8.67 337.01 8.34 336.02 8 335 C6.866 334.876 5.731 334.752 4.562 334.625 C2.799 334.316 2.799 334.316 1 334 C0.67 333.34 0.34 332.68 0 332 C-0.825 331.835 -1.65 331.67 -2.5 331.5 C-3.325 331.335 -4.15 331.17 -5 331 C-5.667 329.667 -6.333 328.333 -7 327 C-8.65 327 -10.3 327 -12 327 C-12.33 326.34 -12.66 325.68 -13 325 C-15.095 324.609 -15.095 324.609 -17.5 324.5 C-19.969 324.344 -19.969 324.344 -22 324 C-22.33 323.34 -22.66 322.68 -23 322 C-23.825 321.835 -24.65 321.67 -25.5 321.5 C-26.325 321.335 -27.15 321.17 -28 321 C-28.33 320.34 -28.66 319.68 -29 319 C-29.99 318.835 -30.98 318.67 -32 318.5 C-32.99 318.335 -33.98 318.17 -35 318 C-35.33 317.34 -35.66 316.68 -36 316 C-38.527 315.344 -38.527 315.344 -41 315 C-41.495 313.515 -41.495 313.515 -42 312 C-42.969 311.876 -43.939 311.752 -44.938 311.625 C-46.453 311.316 -46.453 311.316 -48 311 C-48.33 310.34 -48.66 309.68 -49 309 C-49.99 308.835 -50.98 308.67 -52 308.5 C-52.99 308.335 -53.98 308.17 -55 308 C-55.33 307.34 -55.66 306.68 -56 306 C-58.527 305.344 -58.527 305.344 -61 305 C-61 304.34 -61 303.68 -61 303 C-61.603 302.734 -62.207 302.469 -62.828 302.195 C-63.627 301.842 -64.427 301.489 -65.25 301.125 C-66.039 300.777 -66.828 300.429 -67.641 300.07 C-70.936 298.575 -73.659 297.288 -76.438 294.938 C-79.118 292.911 -80.758 292.54 -84 292 C-84.33 291.34 -84.66 290.68 -85 290 C-85.99 289.835 -86.98 289.67 -88 289.5 C-88.99 289.335 -89.98 289.17 -91 289 C-92 287 -92 287 -93 284 C-94.073 283.876 -95.145 283.752 -96.25 283.625 C-99.414 283.098 -101.307 282.596 -104 281 C-104.66 280.67 -105.32 280.34 -106 280 C-106.557 279.691 -107.114 279.381 -107.688 279.062 C-110.169 277.845 -110.169 277.845 -113.688 277 C-114.781 276.67 -115.874 276.34 -117 276 C-118 274 -118 274 -119 271 C-119.99 271 -120.98 271 -122 271 C-124.585 268.596 -124.985 267.158 -125.328 263.617 C-125.302 262.382 -125.277 261.147 -125.25 259.875 C-125.235 258.635 -125.219 257.395 -125.203 256.117 C-125 253 -125 253 -124 251 C-123.01 251 -122.02 251 -121 251 C-121.33 193.91 -121.66 136.82 -122 78 C-121.34 78 -120.68 78 -120 78 C-120 75.69 -120 73.38 -120 71 C-118.515 70.505 -118.515 70.505 -117 70 C-114.874 67.785 -114.874 67.785 -114 65 C-113.051 64.897 -112.102 64.794 -111.125 64.688 C-107.709 64.315 -107.709 64.315 -106 61 C-102.648 57.003 -98.657 55.125 -94 53 C-94 52.67 -94 52.34 -94 52 C-93.051 51.711 -92.102 51.423 -91.125 51.125 C-87.796 49.926 -86.573 49.145 -85 46 C-82.678 45.593 -80.343 45.256 -78 45 C-77.67 44.01 -77.34 43.02 -77 42 C-76.34 41.67 -75.68 41.34 -75 41 C-75 40.67 -75 40.34 -75 40 C-73.824 39.845 -73.824 39.845 -72.625 39.688 C-69.67 39.224 -69.67 39.224 -68 36 C-64.224 34.406 -61.088 33.76 -57 34 C-56.67 33.01 -56.34 32.02 -56 31 C-53.667 30.333 -51.333 29.667 -49 29 C-48.505 27.515 -48.505 27.515 -48 26 C-46.02 25.67 -44.04 25.34 -42 25 C-41.927 24.06 -41.927 24.06 -41.852 23.102 C-41.777 22.284 -41.702 21.467 -41.625 20.625 C-41.555 19.813 -41.486 19.001 -41.414 18.164 C-41 16 -41 16 -39 14 C-35.375 13.875 -35.375 13.875 -32 14 C-32 13.01 -32 12.02 -32 11 C-31.01 10.34 -30.02 9.68 -29 9 C-28.67 8.34 -28.34 7.68 -28 7 C-22.667 7 -17.333 7 -12 7 C-12 6.67 -12 6.34 -12 6 C-10.391 5.567 -10.391 5.567 -8.75 5.125 C-5.902 4.271 -3.512 3.546 -1 2 C-0.67 1.34 -0.34 0.68 0 0 Z M54 13 C54 13.33 54 13.66 54 14 C56.64 14 59.28 14 62 14 C62 13.67 62 13.34 62 13 C59.36 13 56.72 13 54 13 Z M-40 17 C-40 18.98 -40 20.96 -40 23 C-39.67 23 -39.34 23 -39 23 C-39 21.02 -39 19.04 -39 17 C-39.33 17 -39.66 17 -40 17 Z M-99 57 C-95 58 -95 58 -95 58 Z M-66 299 C-62 300 -62 300 -62 300 Z M118 318 C118 318.33 118 318.66 118 319 C119.65 319 121.3 319 123 319 C123 318.67 123 318.34 123 318 C121.35 318 119.7 318 118 318 Z " fill="#E1B582" transform="translate(221,138)"/>
<path d="M0 0 C2 2 2 2 2 3 C6.95 3 11.9 3 17 3 C17 3.99 17 4.98 17 6 C18.98 6 20.96 6 23 6 C23 7.32 23 8.64 23 10 C24.98 10 26.96 10 29 10 C29 10.99 29 11.98 29 13 C31.31 13 33.62 13 36 13 C36 13.99 36 14.98 36 16 C37.98 16 39.96 16 42 16 C42 16.99 42 17.98 42 19 C44.31 19 46.62 19 49 19 C49 19.99 49 20.98 49 22 C51.31 22 53.62 22 56 22 C56 22.99 56 23.98 56 25 C57.98 25 59.96 25 62 25 C62 26.32 62 27.64 62 29 C64.31 29 66.62 29 69 29 C69 29.99 69 30.98 69 32 C71.31 32 73.62 32 76 32 C76 32.99 76 33.98 76 35 C78.97 35 81.94 35 85 35 C85 36.32 85 37.64 85 39 C87.31 39 89.62 39 92 39 C92 39.99 92 40.98 92 42 C94.31 42 96.62 42 99 42 C99 43.32 99 44.64 99 46 C100.98 46 102.96 46 105 46 C105 46.99 105 47.98 105 49 C106.98 49 108.96 49 111 49 C111 49.99 111 50.98 111 52 C113.31 52 115.62 52 118 52 C118 52.99 118 53.98 118 55 C121.3 55 124.6 55 128 55 C128 55.99 128 56.98 128 58 C130.31 58 132.62 58 135 58 C135 59.32 135 60.64 135 62 C136.98 62 138.96 62 141 62 C141 62.99 141 63.98 141 65 C143.31 65 145.62 65 148 65 C148 65.99 148 66.98 148 68 C150.64 68 153.28 68 156 68 C156 69.32 156 70.64 156 72 C157.32 72 158.64 72 160 72 C160 72.99 160 73.98 160 75 C160.99 75 161.98 75 163 75 C163 77.31 163 79.62 163 82 C163.99 82 164.98 82 166 82 C166 122.59 166 163.18 166 205 C165.01 205 164.02 205 163 205 C163 204.01 163 203.02 163 202 C162.01 202 161.02 202 160 202 C160 200.68 160 199.36 160 198 C157.029 198.342 157.029 198.342 154 199 C153.67 199.66 153.34 200.32 153 201 C151.02 201 149.04 201 147 201 C147 200.01 147 199.02 147 198 C146.01 198 145.02 198 144 198 C144 197.01 144 196.02 144 195 C143.01 195 142.02 195 141 195 C141 194.34 141 193.68 141 193 C138.69 192.34 136.38 191.68 134 191 C134 190.34 134 189.68 134 189 C133.01 189 132.02 189 131 189 C131 187.02 131 185.04 131 183 C131.99 183 132.98 183 134 183 C134 181.68 134 180.36 134 179 C133.01 179 132.02 179 131 179 C131 175.7 131 172.4 131 169 C130.01 169 129.02 169 128 169 C128 168.01 128 167.02 128 166 C126.68 166 125.36 166 124 166 C124 169.3 124 172.6 124 176 C125.32 176 126.64 176 128 176 C128 177.98 128 179.96 128 182 C126.68 182 125.36 182 124 182 C124 184.31 124 186.62 124 189 C125.32 189 126.64 189 128 189 C128 190.98 128 192.96 128 195 C128.99 195 129.98 195 131 195 C131 197.31 131 199.62 131 202 C130.01 202 129.02 202 128 202 C128 202.99 128 203.98 128 205 C124.7 205 121.4 205 118 205 C118 205.99 118 206.98 118 208 C115.69 208 113.38 208 111 208 C111 212.62 111 217.24 111 222 C110.01 222 109.02 222 108 222 C108 222.66 108 223.32 108 224 C106.02 224 104.04 224 102 224 C102 223.01 102 222.02 102 221 C99.69 221 97.38 221 95 221 C95 220.01 95 219.02 95 218 C92.69 218 90.38 218 88 218 C88 216.68 88 215.36 88 214 C86.02 214 84.04 214 82 214 C82 213.01 82 212.02 82 211 C79.69 211 77.38 211 75 211 C75 210.01 75 209.02 75 208 C73.02 208 71.04 208 69 208 C69 207.01 69 206.02 69 205 C66.69 205 64.38 205 62 205 C62 204.01 62 203.02 62 202 C59.69 202 57.38 202 55 202 C55 200.68 55 199.36 55 198 C53.02 198 51.04 198 49 198 C49 197.01 49 196.02 49 195 C46.69 195 44.38 195 42 195 C42 194.01 42 193.02 42 192 C39.03 192 36.06 192 33 192 C33 190.68 33 189.36 33 188 C30.69 188 28.38 188 26 188 C26 187.01 26 186.02 26 185 C23.69 185 21.38 185 19 185 C19 184.01 19 183.02 19 182 C17.02 182 15.04 182 13 182 C13 181.01 13 180.02 13 179 C11.68 179 10.36 179 9 179 C9 178.01 9 177.02 9 176 C7.02 176 5.04 176 3 176 C3 173.36 3 170.72 3 168 C2.34 168 1.68 168 1 168 C1 167.34 1 166.68 1 166 C-0.32 166 -1.64 166 -3 166 C-3 113.53 -3 61.06 -3 7 C-2.34 6.67 -1.68 6.34 -1 6 C-0.342 2.971 -0.342 2.971 0 0 Z " fill="#FCE4B9" transform="translate(111,216)"/>
<path d="M0 0 C7.59 0 15.18 0 23 0 C23 0.99 23 1.98 23 3 C24.98 3 26.96 3 29 3 C29 3.99 29 4.98 29 6 C30.98 6 32.96 6 35 6 C35 6.99 35 7.98 35 9 C38.3 9.33 41.6 9.66 45 10 C45 10.99 45 11.98 45 13 C46.98 13 48.96 13 51 13 C51 14.32 51 15.64 51 17 C51.99 17 52.98 17 54 17 C54 17.99 54 18.98 54 20 C54.99 20 55.98 20 57 20 C57 22.97 57 25.94 57 29 C58.328 28.988 59.655 28.977 61.023 28.965 C78.446 28.859 78.446 28.859 87 30 C87 30.99 87 31.98 87 33 C88.98 33 90.96 33 93 33 C93 33.99 93 34.98 93 36 C95.31 36 97.62 36 100 36 C100 37.32 100 38.64 100 40 C101.98 40 103.96 40 106 40 C106 40.99 106 41.98 106 43 C108.31 43 110.62 43 113 43 C113 43.99 113 44.98 113 46 C114.98 46 116.96 46 119 46 C119 46.99 119 47.98 119 49 C121.31 49 123.62 49 126 49 C126 49.99 126 50.98 126 52 C127.98 52 129.96 52 132 52 C132 53.32 132 54.64 132 56 C134.31 56 136.62 56 139 56 C139 56.99 139 57.98 139 59 C141.31 59 143.62 59 146 59 C146 60.32 146 61.64 146 63 C147.98 63 149.96 63 152 63 C152 63.99 152 64.98 152 66 C153.32 66 154.64 66 156 66 C156 66.99 156 67.98 156 69 C156.99 69 157.98 69 159 69 C159 71.97 159 74.94 159 78 C157.68 78 156.36 78 155 78 C155 78.99 155 79.98 155 81 C153.02 81 151.04 81 149 81 C149 82.32 149 83.64 149 85 C146.69 85 144.38 85 142 85 C142 85.99 142 86.98 142 88 C139.69 88 137.38 88 135 88 C135 88.99 135 89.98 135 91 C133.02 91 131.04 91 129 91 C129 91.99 129 92.98 129 94 C127.02 94 125.04 94 123 94 C123 95.32 123 96.64 123 98 C120.69 98 118.38 98 116 98 C116 98.99 116 99.98 116 101 C115.01 101 114.02 101 113 101 C113 101.99 113 102.98 113 104 C110.69 104 108.38 104 106 104 C106 105.32 106 106.64 106 108 C104.02 108 102.04 108 100 108 C100 108.99 100 109.98 100 111 C97.69 111 95.38 111 93 111 C93 111.99 93 112.98 93 114 C91.02 114 89.04 114 87 114 C87 115.32 87 116.64 87 118 C85.68 118 84.36 118 83 118 C83 118.99 83 119.98 83 121 C81.02 121 79.04 121 77 121 C77 121.99 77 122.98 77 124 C75.02 124 73.04 124 71 124 C71 124.99 71 125.98 71 127 C68.69 127 66.38 127 64 127 C64 128.32 64 129.64 64 131 C54.43 131 44.86 131 35 131 C35 130.01 35 129.02 35 128 C33.02 128 31.04 128 29 128 C29 126.68 29 125.36 29 124 C27.02 124 25.04 124 23 124 C23 123.01 23 122.02 23 121 C20.69 121 18.38 121 16 121 C16 120.01 16 119.02 16 118 C13.69 118 11.38 118 9 118 C9 117.01 9 116.02 9 115 C5.7 115 2.4 115 -1 115 C-1 114.01 -1 113.02 -1 112 C-1.99 112 -2.98 112 -4 112 C-4 111.01 -4 110.02 -4 109 C-5.98 109 -7.96 109 -10 109 C-10 108.34 -10 107.68 -10 107 C-12.31 107 -14.62 107 -17 107 C-17 106.34 -17 105.68 -17 105 C-18.65 105 -20.3 105 -22 105 C-22 104.01 -22 103.02 -22 102 C-23.65 102 -25.3 102 -27 102 C-27 100.68 -27 99.36 -27 98 C-29.31 98 -31.62 98 -34 98 C-34 97.01 -34 96.02 -34 95 C-35.98 95 -37.96 95 -40 95 C-40 94.01 -40 93.02 -40 92 C-42.31 92 -44.62 92 -47 92 C-47 91.01 -47 90.02 -47 89 C-50.3 88.67 -53.6 88.34 -57 88 C-57 87.01 -57 86.02 -57 85 C-59.97 85 -62.94 85 -66 85 C-66 84.01 -66 83.02 -66 82 C-68.31 82 -70.62 82 -73 82 C-73 80.68 -73 79.36 -73 78 C-73.66 78 -74.32 78 -75 78 C-75 77.34 -75 76.68 -75 76 C-77.31 76 -79.62 76 -82 76 C-82 75.01 -82 74.02 -82 73 C-84.31 73 -86.62 73 -89 73 C-89 72.01 -89 71.02 -89 70 C-91.31 70 -93.62 70 -96 70 C-96 68.68 -96 67.36 -96 66 C-99.96 66 -103.92 66 -108 66 C-108 65.01 -108 64.02 -108 63 C-107.34 63 -106.68 63 -106 63 C-106 61.68 -106 60.36 -106 59 C-103.69 59 -101.38 59 -99 59 C-99 58.01 -99 57.02 -99 56 C-97.35 56 -95.7 56 -94 56 C-94 54.68 -94 53.36 -94 52 C-92.02 52 -90.04 52 -88 52 C-88 51.01 -88 50.02 -88 49 C-86.02 49 -84.04 49 -82 49 C-82 48.01 -82 47.02 -82 46 C-81.01 46 -80.02 46 -79 46 C-79 45.01 -79 44.02 -79 43 C-77.02 43 -75.04 43 -73 43 C-73 42.01 -73 41.02 -73 40 C-70.69 40 -68.38 40 -66 40 C-66 38.68 -66 37.36 -66 36 C-64.02 36 -62.04 36 -60 36 C-60 35.01 -60 34.02 -60 33 C-57.69 33 -55.38 33 -53 33 C-53 32.01 -53 31.02 -53 30 C-50.69 30 -48.38 30 -46 30 C-46 29.01 -46 28.02 -46 27 C-44.68 27 -43.36 27 -42 27 C-42 25.68 -42 24.36 -42 23 C-40.35 23 -38.7 23 -37 23 C-37 24.98 -37 26.96 -37 29 C-30.07 29 -23.14 29 -16 29 C-16 25.04 -16 21.08 -16 17 C-14.02 17 -12.04 17 -10 17 C-10 13.7 -10 10.4 -10 7 C-9.01 7 -8.02 7 -7 7 C-7 5.68 -7 4.36 -7 3 C-4.69 3 -2.38 3 0 3 C0 2.01 0 1.02 0 0 Z " fill="#FDF2D7" transform="translate(226,147)"/>
<path d="M0 0 C12.21 0 24.42 0 37 0 C37.33 0.66 37.66 1.32 38 2 C40.534 5.334 43 5.391 47 6 C47.33 6.66 47.66 7.32 48 8 C48.825 8.165 49.65 8.33 50.5 8.5 C51.325 8.665 52.15 8.83 53 9 C53.33 9.66 53.66 10.32 54 11 C56.64 11 59.28 11 62 11 C62 10.34 62 9.68 62 9 C65.984 7.127 69.236 6.703 73.625 6.688 C75.315 6.662 75.315 6.662 77.039 6.637 C80 7 80 7 81.805 8.418 C82.199 8.94 82.594 9.462 83 10 C85.122 12.299 85.916 12.972 89 14 C89.634 18.041 90.124 21.907 90 26 C88.02 26.495 88.02 26.495 86 27 C86 27.66 86 28.32 86 29 C87.238 28.794 88.475 28.588 89.75 28.375 C93.136 27.95 95.146 27.914 98 30 C98.99 30.99 98.99 30.99 100 32 C100.846 32.165 101.691 32.33 102.562 32.5 C103.769 32.748 103.769 32.748 105 33 C105.33 33.66 105.66 34.32 106 35 C106.99 35.165 107.98 35.33 109 35.5 C109.99 35.665 110.98 35.83 112 36 C112.667 37.333 113.333 38.667 114 40 C115.734 40.561 115.734 40.561 118 41 C120.352 41.598 122.689 42.259 125 43 C125.33 43.66 125.66 44.32 126 45 C128.527 45.656 128.527 45.656 131 46 C131 46.66 131 47.32 131 48 C133.31 48.33 135.62 48.66 138 49 C137.67 49.66 137.34 50.32 137 51 C137.99 51 138.98 51 140 51 C140 51.99 140 52.98 140 54 C141.98 54.33 143.96 54.66 146 55 C146 55.66 146 56.32 146 57 C149.96 57.495 149.96 57.495 154 58 C154.33 59.98 154.66 61.96 155 64 C156.238 63.959 157.475 63.917 158.75 63.875 C163.622 63.875 165.981 65.321 170 68 C172.337 69.242 174.476 70.159 177 71 C177.33 71.99 177.66 72.98 178 74 C178.66 74.66 179.32 75.32 180 76 C180.66 76.66 181.32 77.32 182 78 C182.33 78 182.66 78 183 78 C183.33 80.97 183.66 83.94 184 87 C184.66 87 185.32 87 186 87 C185.996 87.847 185.993 88.693 185.989 89.566 C185.901 110.155 185.834 130.744 185.793 151.333 C185.772 161.289 185.744 171.246 185.698 181.203 C185.658 189.879 185.633 198.556 185.624 207.233 C185.618 211.829 185.606 216.424 185.577 221.02 C185.55 225.344 185.542 229.667 185.548 233.991 C185.546 235.58 185.538 237.168 185.523 238.756 C185.503 240.923 185.508 243.088 185.519 245.255 C185.515 246.468 185.512 247.681 185.508 248.931 C186.098 252.609 187.107 253.736 190 256 C190.735 256.38 191.47 256.761 192.227 257.152 C194.826 259.86 194.466 262.272 194.449 265.92 C194.425 266.792 194.4 267.664 194.375 268.562 C194.373 269.876 194.373 269.876 194.371 271.217 C194.281 277.719 194.281 277.719 192 280 C191.567 280.516 191.134 281.031 190.688 281.562 C188.544 283.388 186.752 283.628 184 284 C183.67 285.65 183.34 287.3 183 289 C181.02 289.33 179.04 289.66 177 290 C177 290.66 177 291.32 177 292 C175.329 292.433 175.329 292.433 173.625 292.875 C169.997 293.692 169.997 293.692 168 296 C165.325 297.715 163.024 298.992 160 300 C160 300.66 160 301.32 160 302 C158.02 302.33 156.04 302.66 154 303 C154 303.66 154 304.32 154 305 C152.391 305.433 152.391 305.433 150.75 305.875 C147.891 306.733 145.578 307.568 143 309 C141.7 309.65 140.387 310.277 139.062 310.875 C136.954 311.872 136.954 311.872 135.625 313.562 C133.296 315.623 131.025 315.664 128 316 C128 316.66 128 317.32 128 318 C125.094 319.257 123.204 320 120 320 C119.67 320.66 119.34 321.32 119 322 C118.67 322.66 118.34 323.32 118 324 C115.673 324.689 113.339 325.355 111 326 C110.01 326.66 109.02 327.32 108 328 C105.674 329.551 103.499 330.791 101 332 C100.34 332.33 99.68 332.66 99 333 C97.979 333.464 97.979 333.464 96.938 333.938 C94.838 334.85 94.838 334.85 94 337 C91.438 337.625 91.438 337.625 89 338 C88.67 338.99 88.34 339.98 88 341 C86.948 341.103 85.896 341.206 84.812 341.312 C81.073 341.987 79.016 342.759 76 345 C74.062 347.773 74.062 347.773 73 350 C65.966 351.37 58.888 351.221 51.75 351.25 C49.832 351.281 49.832 351.281 47.875 351.312 C46.653 351.318 45.431 351.323 44.172 351.328 C43.059 351.337 41.946 351.347 40.8 351.356 C37.656 350.956 36.973 350.355 35 348 C34.34 348 33.68 348 33 348 C33 347.01 33 346.02 33 345 C32.408 345.035 31.817 345.07 31.207 345.105 C26.14 345.279 23.242 345.03 19 342 C17.674 341.638 16.341 341.303 15 341 C13.651 340.365 12.315 339.702 11 339 C10.34 338.67 9.68 338.34 9 338 C8.67 337.01 8.34 336.02 8 335 C6.866 334.876 5.731 334.752 4.562 334.625 C2.799 334.316 2.799 334.316 1 334 C0.67 333.34 0.34 332.68 0 332 C-0.825 331.835 -1.65 331.67 -2.5 331.5 C-3.325 331.335 -4.15 331.17 -5 331 C-5.667 329.667 -6.333 328.333 -7 327 C-8.65 327 -10.3 327 -12 327 C-12.33 326.34 -12.66 325.68 -13 325 C-15.095 324.609 -15.095 324.609 -17.5 324.5 C-19.969 324.344 -19.969 324.344 -22 324 C-22.33 323.34 -22.66 322.68 -23 322 C-23.825 321.835 -24.65 321.67 -25.5 321.5 C-26.325 321.335 -27.15 321.17 -28 321 C-28.33 320.34 -28.66 319.68 -29 319 C-29.99 318.835 -30.98 318.67 -32 318.5 C-32.99 318.335 -33.98 318.17 -35 318 C-35.33 317.34 -35.66 316.68 -36 316 C-38.527 315.344 -38.527 315.344 -41 315 C-41.495 313.515 -41.495 313.515 -42 312 C-42.969 311.876 -43.939 311.752 -44.938 311.625 C-46.453 311.316 -46.453 311.316 -48 311 C-48.33 310.34 -48.66 309.68 -49 309 C-49.99 308.835 -50.98 308.67 -52 308.5 C-52.99 308.335 -53.98 308.17 -55 308 C-55.33 307.34 -55.66 306.68 -56 306 C-58.527 305.344 -58.527 305.344 -61 305 C-61 304.34 -61 303.68 -61 303 C-61.603 302.734 -62.207 302.469 -62.828 302.195 C-63.627 301.842 -64.427 301.489 -65.25 301.125 C-66.039 300.777 -66.828 300.429 -67.641 300.07 C-70.936 298.575 -73.659 297.288 -76.438 294.938 C-79.118 292.911 -80.758 292.54 -84 292 C-84.33 291.34 -84.66 290.68 -85 290 C-85.99 289.835 -86.98 289.67 -88 289.5 C-88.99 289.335 -89.98 289.17 -91 289 C-92 287 -92 287 -93 284 C-94.073 283.876 -95.145 283.752 -96.25 283.625 C-99.414 283.098 -101.307 282.596 -104 281 C-104.66 280.67 -105.32 280.34 -106 280 C-106.557 279.691 -107.114 279.381 -107.688 279.062 C-110.169 277.845 -110.169 277.845 -113.688 277 C-114.781 276.67 -115.874 276.34 -117 276 C-118 274 -118 274 -119 271 C-119.99 271 -120.98 271 -122 271 C-124.585 268.596 -124.985 267.158 -125.328 263.617 C-125.302 262.382 -125.277 261.147 -125.25 259.875 C-125.235 258.635 -125.219 257.395 -125.203 256.117 C-125 253 -125 253 -124 251 C-123.01 251 -122.02 251 -121 251 C-121.33 193.91 -121.66 136.82 -122 78 C-121.34 78 -120.68 78 -120 78 C-120 75.69 -120 73.38 -120 71 C-118.515 70.505 -118.515 70.505 -117 70 C-114.874 67.785 -114.874 67.785 -114 65 C-113.051 64.897 -112.102 64.794 -111.125 64.688 C-107.709 64.315 -107.709 64.315 -106 61 C-102.648 57.003 -98.657 55.125 -94 53 C-94 52.67 -94 52.34 -94 52 C-93.051 51.711 -92.102 51.423 -91.125 51.125 C-87.796 49.926 -86.573 49.145 -85 46 C-82.678 45.593 -80.343 45.256 -78 45 C-77.67 44.01 -77.34 43.02 -77 42 C-76.34 41.67 -75.68 41.34 -75 41 C-75 40.67 -75 40.34 -75 40 C-73.824 39.845 -73.824 39.845 -72.625 39.688 C-69.67 39.224 -69.67 39.224 -68 36 C-64.224 34.406 -61.088 33.76 -57 34 C-56.67 33.01 -56.34 32.02 -56 31 C-53.667 30.333 -51.333 29.667 -49 29 C-48.505 27.515 -48.505 27.515 -48 26 C-46.02 25.67 -44.04 25.34 -42 25 C-41.927 24.06 -41.927 24.06 -41.852 23.102 C-41.777 22.284 -41.702 21.467 -41.625 20.625 C-41.555 19.813 -41.486 19.001 -41.414 18.164 C-41 16 -41 16 -39 14 C-35.375 13.875 -35.375 13.875 -32 14 C-32 13.01 -32 12.02 -32 11 C-31.01 10.34 -30.02 9.68 -29 9 C-28.67 8.34 -28.34 7.68 -28 7 C-22.667 7 -17.333 7 -12 7 C-12 6.67 -12 6.34 -12 6 C-10.391 5.567 -10.391 5.567 -8.75 5.125 C-5.902 4.271 -3.512 3.546 -1 2 C-0.67 1.34 -0.34 0.68 0 0 Z M5 9 C5 9.99 5 10.98 5 12 C2.69 12 0.38 12 -2 12 C-2 13.32 -2 14.64 -2 16 C-2.99 16 -3.98 16 -5 16 C-5 19.3 -5 22.6 -5 26 C-6.98 26 -8.96 26 -11 26 C-11 29.96 -11 33.92 -11 38 C-17.93 38 -24.86 38 -32 38 C-32 36.02 -32 34.04 -32 32 C-33.65 32 -35.3 32 -37 32 C-37 33.32 -37 34.64 -37 36 C-38.32 36 -39.64 36 -41 36 C-41 36.99 -41 37.98 -41 39 C-43.31 39 -45.62 39 -48 39 C-48 39.99 -48 40.98 -48 42 C-50.31 42 -52.62 42 -55 42 C-55 42.99 -55 43.98 -55 45 C-56.98 45 -58.96 45 -61 45 C-61 46.32 -61 47.64 -61 49 C-63.31 49 -65.62 49 -68 49 C-68 49.99 -68 50.98 -68 52 C-69.98 52 -71.96 52 -74 52 C-74 52.99 -74 53.98 -74 55 C-74.99 55 -75.98 55 -77 55 C-77 55.99 -77 56.98 -77 58 C-78.98 58 -80.96 58 -83 58 C-83 58.99 -83 59.98 -83 61 C-84.98 61 -86.96 61 -89 61 C-89 62.32 -89 63.64 -89 65 C-90.65 65 -92.3 65 -94 65 C-94 65.99 -94 66.98 -94 68 C-96.31 68 -98.62 68 -101 68 C-101 68.99 -101 69.98 -101 71 C-101.99 71 -102.98 71 -104 71 C-104 72.32 -104 73.64 -104 75 C-104.99 75 -105.98 75 -107 75 C-107 75.99 -107 76.98 -107 78 C-107.99 78 -108.98 78 -110 78 C-110 79.98 -110 81.96 -110 84 C-111.32 84 -112.64 84 -114 84 C-114 139.11 -114 194.22 -114 251 C-113.01 251 -112.02 251 -111 251 C-111 252.98 -111 254.96 -111 257 C-109.68 257 -108.36 257 -107 257 C-107 257.99 -107 258.98 -107 260 C-104.69 260 -102.38 260 -100 260 C-100 260.99 -100 261.98 -100 263 C-98.02 263 -96.04 263 -94 263 C-94 264.32 -94 265.64 -94 267 C-91.69 267 -89.38 267 -87 267 C-87 267.99 -87 268.98 -87 270 C-84.69 270 -82.38 270 -80 270 C-80 270.99 -80 271.98 -80 273 C-78.02 273 -76.04 273 -74 273 C-74 274.32 -74 275.64 -74 277 C-72.02 277 -70.04 277 -68 277 C-68 277.99 -68 278.98 -68 280 C-65.69 280 -63.38 280 -61 280 C-61 280.99 -61 281.98 -61 283 C-59.02 283 -57.04 283 -55 283 C-55 283.99 -55 284.98 -55 286 C-52.69 286 -50.38 286 -48 286 C-48 286.99 -48 287.98 -48 289 C-45.69 289 -43.38 289 -41 289 C-41 290.32 -41 291.64 -41 293 C-39.02 293 -37.04 293 -35 293 C-35 293.99 -35 294.98 -35 296 C-32.69 296 -30.38 296 -28 296 C-28 296.99 -28 297.98 -28 299 C-25.69 299 -23.38 299 -21 299 C-21 299.99 -21 300.98 -21 302 C-18.69 302 -16.38 302 -14 302 C-14 302.99 -14 303.98 -14 305 C-12.02 305 -10.04 305 -8 305 C-8 306.32 -8 307.64 -8 309 C-6.02 309 -4.04 309 -2 309 C-2 309.99 -2 310.98 -2 312 C1.3 312 4.6 312 8 312 C8 312.99 8 313.98 8 315 C10.31 315 12.62 315 15 315 C15 315.99 15 316.98 15 318 C15.99 318 16.98 318 18 318 C18 318.99 18 319.98 18 321 C20.31 321 22.62 321 25 321 C25 322.32 25 323.64 25 325 C27.97 325 30.94 325 34 325 C34 325.99 34 326.98 34 328 C36.31 328 38.62 328 41 328 C41 328.99 41 329.98 41 331 C45.95 331 50.9 331 56 331 C56 330.01 56 329.02 56 328 C58.31 328 60.62 328 63 328 C63 327.01 63 326.02 63 325 C65.97 325 68.94 325 72 325 C72 323.68 72 322.36 72 321 C73.32 321 74.64 321 76 321 C76 320.01 76 319.02 76 318 C77.98 318 79.96 318 82 318 C82 317.01 82 316.02 82 315 C83.32 315 84.64 315 86 315 C86 314.01 86 313.02 86 312 C87.98 312 89.96 312 92 312 C92 311.01 92 310.02 92 309 C93.98 309 95.96 309 98 309 C98 307.68 98 306.36 98 305 C99.98 305 101.96 305 104 305 C104 304.01 104 303.02 104 302 C106.31 302 108.62 302 111 302 C111 301.01 111 300.02 111 299 C113.31 299 115.62 299 118 299 C118 298.01 118 297.02 118 296 C118.99 296 119.98 296 121 296 C121 294.68 121 293.36 121 292 C122.98 292 124.96 292 127 292 C127 291.01 127 290.02 127 289 C128.32 289 129.64 289 131 289 C131 288.01 131 287.02 131 286 C132.98 286 134.96 286 137 286 C137 285.01 137 284.02 137 283 C139.31 283 141.62 283 144 283 C144 281.68 144 280.36 144 279 C145.98 279 147.96 279 150 279 C150 278.01 150 277.02 150 276 C151.32 276 152.64 276 154 276 C154 275.01 154 274.02 154 273 C155.98 273 157.96 273 160 273 C160 272.01 160 271.02 160 270 C161.32 270 162.64 270 164 270 C164 268.68 164 267.36 164 266 C165.98 266 167.96 266 170 266 C170 265.01 170 264.02 170 263 C170.99 263 171.98 263 173 263 C173 262.01 173 261.02 173 260 C173.99 260 174.98 260 176 260 C176 204.23 176 148.46 176 91 C175.01 91 174.02 91 173 91 C173 89.02 173 87.04 173 85 C172.01 85 171.02 85 170 85 C170 82.69 170 80.38 170 78 C167.03 78 164.06 78 161 78 C161 77.01 161 76.02 161 75 C159.68 75 158.36 75 157 75 C157 74.01 157 73.02 157 72 C155.02 72 153.04 72 151 72 C151 70.68 151 69.36 151 68 C148.69 68 146.38 68 144 68 C144 67.01 144 66.02 144 65 C141.69 65 139.38 65 137 65 C137 63.68 137 62.36 137 61 C135.02 61 133.04 61 131 61 C131 60.01 131 59.02 131 58 C128.69 58 126.38 58 124 58 C124 57.01 124 56.02 124 55 C122.02 55 120.04 55 118 55 C118 54.01 118 53.02 118 52 C115.69 52 113.38 52 111 52 C111 51.01 111 50.02 111 49 C109.02 49 107.04 49 105 49 C105 47.68 105 46.36 105 45 C102.69 45 100.38 45 98 45 C98 44.01 98 43.02 98 42 C96.02 42 94.04 42 92 42 C92 41.01 92 40.02 92 39 C82.02 37.669 72.047 37.912 62 38 C62 35.03 62 32.06 62 29 C61.01 29 60.02 29 59 29 C59 28.01 59 27.02 59 26 C58.01 26 57.02 26 56 26 C56 24.68 56 23.36 56 22 C54.02 22 52.04 22 50 22 C50 21.01 50 20.02 50 19 C46.7 18.67 43.4 18.34 40 18 C40 17.01 40 16.02 40 15 C38.02 15 36.04 15 34 15 C34 14.01 34 13.02 34 12 C32.02 12 30.04 12 28 12 C28 11.01 28 10.02 28 9 C20.41 9 12.82 9 5 9 Z M54 13 C54 13.33 54 13.66 54 14 C56.64 14 59.28 14 62 14 C62 13.67 62 13.34 62 13 C59.36 13 56.72 13 54 13 Z M-40 17 C-40 18.98 -40 20.96 -40 23 C-39.67 23 -39.34 23 -39 23 C-39 21.02 -39 19.04 -39 17 C-39.33 17 -39.66 17 -40 17 Z M-99 57 C-95 58 -95 58 -95 58 Z M-66 299 C-62 300 -62 300 -62 300 Z M118 318 C118 318.33 118 318.66 118 319 C119.65 319 121.3 319 123 319 C123 318.67 123 318.34 123 318 C121.35 318 119.7 318 118 318 Z " fill="#363441" transform="translate(221,138)"/>
<path d="M0 0 C0.33 1.32 0.66 2.64 1 4 C1.99 4 2.98 4 4 4 C4 5.98 4 7.96 4 10 C4.99 10 5.98 10 7 10 C7 11.32 7 12.64 7 14 C8.32 14 9.64 14 11 14 C11 14.99 11 15.98 11 17 C12.98 17 14.96 17 17 17 C17 17.99 17 18.98 17 20 C18.98 20 20.96 20 23 20 C23 20.99 23 21.98 23 23 C24.32 23 25.64 23 27 23 C27 23.99 27 24.98 27 26 C30.3 26 33.6 26 37 26 C37 27.32 37 28.64 37 30 C39.31 30 41.62 30 44 30 C44 30.99 44 31.98 44 33 C45.98 33 47.96 33 50 33 C50 33.99 50 34.98 50 36 C52.31 36 54.62 36 57 36 C57 37.32 57 38.64 57 40 C58.98 40 60.96 40 63 40 C63 40.99 63 41.98 63 43 C65.31 43 67.62 43 70 43 C70 43.99 70 44.98 70 46 C71.32 46 72.64 46 74 46 C74 46.99 74 47.98 74 49 C76.64 49 79.28 49 82 49 C82 49.99 82 50.98 82 52 C84.31 52 86.62 52 89 52 C89 53.32 89 54.64 89 56 C91.31 56 93.62 56 96 56 C96 56.99 96 57.98 96 59 C98.64 59 101.28 59 104 59 C104 59.99 104 60.98 104 62 C105.98 62 107.96 62 110 62 C110 62.99 110 63.98 110 65 C111.98 65 113.96 65 116 65 C116 65.99 116 66.98 116 68 C119.3 68 122.6 68 126 68 C126 68.99 126 69.98 126 71 C127.98 71 129.96 71 132 71 C132 72.32 132 73.64 132 75 C133.32 75 134.64 75 136 75 C136 75.99 136 76.98 136 78 C138.97 78 141.94 78 145 78 C145 78.99 145 79.98 145 81 C147.31 81 149.62 81 152 81 C152 82.32 152 83.64 152 85 C153.98 85 155.96 85 158 85 C158 85.99 158 86.98 158 88 C166.58 88 175.16 88 184 88 C184 87.01 184 86.02 184 85 C186.31 85 188.62 85 191 85 C191 84.01 191 83.02 191 82 C191.99 82 192.98 82 194 82 C194 80.68 194 79.36 194 78 C195.98 78 197.96 78 200 78 C200 77.01 200 76.02 200 75 C201.98 75 203.96 75 206 75 C206 73.68 206 72.36 206 71 C207.98 71 209.96 71 212 71 C212 70.01 212 69.02 212 68 C214.31 68 216.62 68 219 68 C219 67.01 219 66.02 219 65 C220.98 65 222.96 65 225 65 C225 64.01 225 63.02 225 62 C226.32 62 227.64 62 229 62 C229 61.01 229 60.02 229 59 C229.99 59 230.98 59 232 59 C232 58.01 232 57.02 232 56 C234.31 56 236.62 56 239 56 C239 55.01 239 54.02 239 53 C240.98 53 242.96 53 245 53 C245 51.68 245 50.36 245 49 C247.31 49 249.62 49 252 49 C252 48.01 252 47.02 252 46 C253.98 46 255.96 46 258 46 C258 45.01 258 44.02 258 43 C260.31 43 262.62 43 265 43 C265 42.01 265 41.02 265 40 C265.99 40 266.98 40 268 40 C268 38.68 268 37.36 268 36 C270.31 36 272.62 36 275 36 C275 35.01 275 34.02 275 33 C275.99 33 276.98 33 278 33 C278 32.01 278 31.02 278 30 C280.31 30 282.62 30 285 30 C285 29.01 285 28.02 285 27 C286.98 27 288.96 27 291 27 C291 25.68 291 24.36 291 23 C291.99 23 292.98 23 294 23 C294 22.01 294 21.02 294 20 C295.32 20 296.64 20 298 20 C298 19.01 298 18.02 298 17 C298.99 17 299.98 17 301 17 C301 14.69 301 12.38 301 10 C302.32 10 303.64 10 305 10 C305 7.69 305 5.38 305 3 C307.867 3.573 308.861 3.861 311 6 C311.694 6.339 312.387 6.678 313.102 7.027 C315.807 9.838 315.467 12.128 315.449 15.92 C315.425 16.792 315.4 17.664 315.375 18.562 C315.373 19.876 315.373 19.876 315.371 21.217 C315.281 27.719 315.281 27.719 313 30 C312.567 30.516 312.134 31.031 311.688 31.562 C309.544 33.388 307.752 33.628 305 34 C304.67 35.65 304.34 37.3 304 39 C302.02 39.33 300.04 39.66 298 40 C298 40.66 298 41.32 298 42 C296.886 42.289 295.772 42.577 294.625 42.875 C290.997 43.692 290.997 43.692 289 46 C286.325 47.715 284.024 48.992 281 50 C281 50.66 281 51.32 281 52 C279.02 52.33 277.04 52.66 275 53 C275 53.66 275 54.32 275 55 C273.928 55.289 272.855 55.577 271.75 55.875 C268.891 56.733 266.578 57.568 264 59 C262.7 59.65 261.387 60.277 260.062 60.875 C257.954 61.872 257.954 61.872 256.625 63.562 C254.296 65.623 252.025 65.664 249 66 C249 66.66 249 67.32 249 68 C246.094 69.257 244.204 70 241 70 C240.67 70.66 240.34 71.32 240 72 C239.67 72.66 239.34 73.32 239 74 C236.673 74.689 234.339 75.355 232 76 C231.01 76.66 230.02 77.32 229 78 C226.674 79.551 224.499 80.791 222 82 C221.01 82.495 221.01 82.495 220 83 C219.319 83.309 218.639 83.619 217.938 83.938 C215.838 84.85 215.838 84.85 215 87 C212.437 87.625 212.437 87.625 210 88 C209.67 88.99 209.34 89.98 209 91 C207.948 91.103 206.896 91.206 205.812 91.312 C202.073 91.987 200.016 92.759 197 95 C195.062 97.773 195.062 97.773 194 100 C186.966 101.37 179.888 101.221 172.75 101.25 C171.471 101.271 170.192 101.291 168.875 101.312 C167.653 101.318 166.431 101.323 165.172 101.328 C164.059 101.337 162.946 101.347 161.8 101.356 C158.656 100.956 157.973 100.355 156 98 C155.34 98 154.68 98 154 98 C154 97.01 154 96.02 154 95 C153.112 95.052 153.112 95.052 152.207 95.105 C147.14 95.279 144.242 95.03 140 92 C138.674 91.638 137.341 91.303 136 91 C134.651 90.365 133.315 89.702 132 89 C131.34 88.67 130.68 88.34 130 88 C129.67 87.01 129.34 86.02 129 85 C127.866 84.876 126.731 84.752 125.562 84.625 C124.387 84.419 123.211 84.212 122 84 C121.67 83.34 121.34 82.68 121 82 C120.175 81.835 119.35 81.67 118.5 81.5 C117.675 81.335 116.85 81.17 116 81 C115.333 79.667 114.667 78.333 114 77 C112.35 77 110.7 77 109 77 C108.67 76.34 108.34 75.68 108 75 C105.905 74.609 105.905 74.609 103.5 74.5 C101.031 74.344 101.031 74.344 99 74 C98.67 73.34 98.34 72.68 98 72 C97.175 71.835 96.35 71.67 95.5 71.5 C94.675 71.335 93.85 71.17 93 71 C92.67 70.34 92.34 69.68 92 69 C91.01 68.835 90.02 68.67 89 68.5 C88.01 68.335 87.02 68.17 86 68 C85.67 67.34 85.34 66.68 85 66 C82.473 65.344 82.473 65.344 80 65 C79.67 64.01 79.34 63.02 79 62 C77.546 61.814 77.546 61.814 76.062 61.625 C75.052 61.419 74.041 61.212 73 61 C72.67 60.34 72.34 59.68 72 59 C70.515 58.752 70.515 58.752 69 58.5 C67.515 58.252 67.515 58.252 66 58 C65.67 57.34 65.34 56.68 65 56 C62.473 55.344 62.473 55.344 60 55 C60 54.34 60 53.68 60 53 C59.397 52.734 58.793 52.469 58.172 52.195 C57.373 51.842 56.573 51.489 55.75 51.125 C54.961 50.777 54.172 50.429 53.359 50.07 C50.064 48.575 47.341 47.288 44.562 44.938 C41.882 42.911 40.242 42.54 37 42 C36.67 41.34 36.34 40.68 36 40 C35.01 39.835 34.02 39.67 33 39.5 C32.01 39.335 31.02 39.17 30 39 C29 37 29 37 28 34 C26.927 33.876 25.855 33.752 24.75 33.625 C21.586 33.098 19.693 32.596 17 31 C16.34 30.67 15.68 30.34 15 30 C14.443 29.691 13.886 29.381 13.312 29.062 C10.831 27.845 10.831 27.845 7.312 27 C6.219 26.67 5.126 26.34 4 26 C3 24 3 24 2 21 C1.01 21 0.02 21 -1 21 C-3.585 18.596 -3.985 17.158 -4.328 13.617 C-4.302 12.382 -4.277 11.147 -4.25 9.875 C-4.235 8.635 -4.219 7.395 -4.203 6.117 C-4 3 -4 3 -3 1 C-2.01 0.67 -1.02 0.34 0 0 Z M55 49 C59 50 59 50 59 50 Z M239 68 C239 68.33 239 68.66 239 69 C240.65 69 242.3 69 244 69 C244 68.67 244 68.34 244 68 C242.35 68 240.7 68 239 68 Z " fill="#B7B7B8" transform="translate(100,388)"/>
<path d="M0 0 C7.26 0 14.52 0 22 0 C22 0.99 22 1.98 22 3 C24.64 3 27.28 3 30 3 C30 3.99 30 4.98 30 6 C30.99 6 31.98 6 33 6 C33 7.32 33 8.64 33 10 C34.32 10 35.64 10 37 10 C37 10.99 37 11.98 37 13 C37.99 13 38.98 13 40 13 C40 13.99 40 14.98 40 16 C40.99 16 41.98 16 43 16 C43 18.31 43 20.62 43 23 C43.99 23 44.98 23 46 23 C46 33.56 46 44.12 46 55 C45.01 55 44.02 55 43 55 C43 55.99 43 56.98 43 58 C42.01 58 41.02 58 40 58 C40 59.32 40 60.64 40 62 C37.69 62 35.38 62 33 62 C33 62.99 33 63.98 33 65 C28.71 65 24.42 65 20 65 C20 64.01 20 63.02 20 62 C16.7 62 13.4 62 10 62 C10 60.68 10 59.36 10 58 C7.69 58 5.38 58 3 58 C3 57.34 3 56.68 3 56 C2.01 56 1.02 56 0 56 C0 54.68 0 53.36 0 52 C-0.99 52 -1.98 52 -3 52 C-3 51.34 -3 50.68 -3 50 C-4.32 50 -5.64 50 -7 50 C-7 47.69 -7 45.38 -7 43 C-7.99 43 -8.98 43 -10 43 C-10 40.69 -10 38.38 -10 36 C-10.66 36 -11.32 36 -12 36 C-12.369 16.995 -12.369 16.995 -10 9 C-9.01 9 -8.02 9 -7 9 C-7 8.01 -7 7.02 -7 6 C-5.68 6 -4.36 6 -3 6 C-3 5.01 -3 4.02 -3 3 C-2.01 3 -1.02 3 0 3 C0 2.01 0 1.02 0 0 Z " fill="#353340" transform="translate(127,265)"/>
<path d="M0 0 C6.93 0 13.86 0 21 0 C21 0.99 21 1.98 21 3 C23.97 3 26.94 3 30 3 C30 4.32 30 5.64 30 7 C30.99 7 31.98 7 33 7 C33 7.99 33 8.98 33 10 C33.99 10 34.98 10 36 10 C36 11.32 36 12.64 36 14 C36.99 14 37.98 14 39 14 C39 15.65 39 17.3 39 19 C39.99 19 40.98 19 42 19 C42 21.31 42 23.62 42 26 C42.99 26 43.98 26 45 26 C45 34.58 45 43.16 45 52 C44.34 52 43.68 52 43 52 C43 52.99 43 53.98 43 55 C41.68 55 40.36 55 39 55 C39 55.99 39 56.98 39 58 C38.01 58 37.02 58 36 58 C36 58.99 36 59.98 36 61 C34.02 61 32.04 61 30 61 C30 61.99 30 62.98 30 64 C26.7 64 23.4 64 20 64 C20 63.34 20 62.68 20 62 C16.7 62 13.4 62 10 62 C10 60.68 10 59.36 10 58 C8.02 58 6.04 58 4 58 C4 57.01 4 56.02 4 55 C2.68 55 1.36 55 0 55 C0 54.01 0 53.02 0 52 C-1.98 51.67 -3.96 51.34 -6 51 C-6 50.01 -6 49.02 -6 48 C-6.99 48 -7.98 48 -9 48 C-9 46.02 -9 44.04 -9 42 C-10.32 42 -11.64 42 -13 42 C-13 31.44 -13 20.88 -13 10 C-11.68 10 -10.36 10 -9 10 C-9 9.01 -9 8.02 -9 7 C-7.35 6.67 -5.7 6.34 -4 6 C-4 5.01 -4 4.02 -4 3 C-2.68 3 -1.36 3 0 3 C0 2.01 0 1.02 0 0 Z " fill="#383644" transform="translate(219,301)"/>
<path d="M0 0 C2 2 2 2 2 3 C6.95 3 11.9 3 17 3 C17 3.99 17 4.98 17 6 C18.98 6 20.96 6 23 6 C23 7.32 23 8.64 23 10 C24.98 10 26.96 10 29 10 C29 10.99 29 11.98 29 13 C31.31 13 33.62 13 36 13 C36 13.99 36 14.98 36 16 C37.98 16 39.96 16 42 16 C42 16.99 42 17.98 42 19 C44.31 19 46.62 19 49 19 C49 19.99 49 20.98 49 22 C51.31 22 53.62 22 56 22 C56 22.99 56 23.98 56 25 C57.98 25 59.96 25 62 25 C62 26.32 62 27.64 62 29 C64.31 29 66.62 29 69 29 C69 29.99 69 30.98 69 32 C71.31 32 73.62 32 76 32 C76 32.99 76 33.98 76 35 C78.97 35 81.94 35 85 35 C85 36.32 85 37.64 85 39 C87.31 39 89.62 39 92 39 C92 39.99 92 40.98 92 42 C94.31 42 96.62 42 99 42 C99 43.32 99 44.64 99 46 C100.98 46 102.96 46 105 46 C105 46.99 105 47.98 105 49 C106.98 49 108.96 49 111 49 C111 49.99 111 50.98 111 52 C113.31 52 115.62 52 118 52 C118 52.99 118 53.98 118 55 C121.3 55 124.6 55 128 55 C128 55.99 128 56.98 128 58 C130.31 58 132.62 58 135 58 C135 59.32 135 60.64 135 62 C136.98 62 138.96 62 141 62 C141 62.99 141 63.98 141 65 C142.98 65 144.96 65 147 65 C147 66.32 147 67.64 147 69 C144.36 68.67 141.72 68.34 139 68 C139 67.01 139 66.02 139 65 C136.36 65 133.72 65 131 65 C131 64.01 131 63.02 131 62 C128.69 62 126.38 62 124 62 C124 61.01 124 60.02 124 59 C121.03 59 118.06 59 115 59 C114.67 58.01 114.34 57.02 114 56 C112.35 56 110.7 56 109 56 C108.505 54.02 108.505 54.02 108 52 C105.03 52 102.06 52 99 52 C99 51.01 99 50.02 99 49 C97.68 49 96.36 49 95 49 C95 48.01 95 47.02 95 46 C92.69 46 90.38 46 88 46 C88 44.68 88 43.36 88 42 C85.03 42 82.06 42 79 42 C78.67 41.34 78.34 40.68 78 40 C74.971 39.342 74.971 39.342 72 39 C71.67 38.01 71.34 37.02 71 36 C69.02 35.67 67.04 35.34 65 35 C65 34.01 65 33.02 65 32 C63.02 32 61.04 32 59 32 C59 31.01 59 30.02 59 29 C55.7 29 52.4 29 49 29 C49 28.01 49 27.02 49 26 C46.69 26 44.38 26 42 26 C42 25.01 42 24.02 42 23 C40.02 23 38.04 23 36 23 C36 21.68 36 20.36 36 19 C33.03 19 30.06 19 27 19 C27 18.01 27 17.02 27 16 C24.36 16 21.72 16 19 16 C19 15.01 19 14.02 19 13 C17.02 13 15.04 13 13 13 C13 13.99 13 14.98 13 16 C12.01 16 11.02 16 10 16 C9.67 16.99 9.34 17.98 9 19 C8.01 19 7.02 19 6 19 C6 21.31 6 23.62 6 26 C5.01 26 4.02 26 3 26 C3 68.57 3 111.14 3 155 C1.02 155 -0.96 155 -3 155 C-3 106.16 -3 57.32 -3 7 C-2.34 6.67 -1.68 6.34 -1 6 C-0.342 2.971 -0.342 2.971 0 0 Z " fill="#FCF3D8" transform="translate(111,216)"/>
<path d="M0 0 C1.65 0 3.3 0 5 0 C5 5.28 5 10.56 5 16 C5.99 16 6.98 16 8 16 C8 19.3 8 22.6 8 26 C8.99 26 9.98 26 11 26 C11 18.41 11 10.82 11 3 C15.29 3 19.58 3 24 3 C24 4.32 24 5.64 24 7 C25.98 7 27.96 7 30 7 C30 16.24 30 25.48 30 35 C29.01 35 28.02 35 27 35 C27 35.99 27 36.98 27 38 C26.01 38 25.02 38 24 38 C24 39.32 24 40.64 24 42 C22.02 42 20.04 42 18 42 C17.67 41.01 17.34 40.02 17 39 C14.03 39 11.06 39 8 39 C8 38.01 8 37.02 8 36 C4.7 36 1.4 36 -2 36 C-2 34.68 -2 33.36 -2 32 C-3.98 32 -5.96 32 -8 32 C-8 31.01 -8 30.02 -8 29 C-10.31 29 -12.62 29 -15 29 C-15 28.01 -15 27.02 -15 26 C-16.98 26 -18.96 26 -21 26 C-21 25.01 -21 24.02 -21 23 C-22.32 23 -23.64 23 -25 23 C-25 21.68 -25 20.36 -25 19 C-23.68 19 -22.36 19 -21 19 C-21 17.02 -21 15.04 -21 13 C-20.01 13 -19.02 13 -18 13 C-18 11.02 -18 9.04 -18 7 C-13.71 7 -9.42 7 -5 7 C-5 5.68 -5 4.36 -5 3 C-3.35 3 -1.7 3 0 3 C0 2.01 0 1.02 0 0 Z " fill="#FDE5B9" transform="translate(247,421)"/>
<path d="M0 0 C7.26 0 14.52 0 22 0 C22 0.99 22 1.98 22 3 C24.64 3 27.28 3 30 3 C30 3.99 30 4.98 30 6 C30.99 6 31.98 6 33 6 C33 7.32 33 8.64 33 10 C34.32 10 35.64 10 37 10 C37 10.99 37 11.98 37 13 C37.99 13 38.98 13 40 13 C40 13.99 40 14.98 40 16 C40.99 16 41.98 16 43 16 C43 18.31 43 20.62 43 23 C43.99 23 44.98 23 46 23 C46 33.56 46 44.12 46 55 C45.01 55 44.02 55 43 55 C43 55.99 43 56.98 43 58 C42.01 58 41.02 58 40 58 C40 59.32 40 60.64 40 62 C37.69 62 35.38 62 33 62 C33 62.99 33 63.98 33 65 C28.71 65 24.42 65 20 65 C20 64.01 20 63.02 20 62 C16.7 62 13.4 62 10 62 C10 60.68 10 59.36 10 58 C7.69 58 5.38 58 3 58 C3 57.34 3 56.68 3 56 C2.01 56 1.02 56 0 56 C0 54.68 0 53.36 0 52 C-0.99 52 -1.98 52 -3 52 C-3 51.34 -3 50.68 -3 50 C-4.32 50 -5.64 50 -7 50 C-7 47.69 -7 45.38 -7 43 C-7.99 43 -8.98 43 -10 43 C-10 40.69 -10 38.38 -10 36 C-10.66 36 -11.32 36 -12 36 C-12.369 16.995 -12.369 16.995 -10 9 C-9.01 9 -8.02 9 -7 9 C-7 8.01 -7 7.02 -7 6 C-5.68 6 -4.36 6 -3 6 C-3 5.01 -3 4.02 -3 3 C-2.01 3 -1.02 3 0 3 C0 2.01 0 1.02 0 0 Z M3 6 C3 6.99 3 7.98 3 9 C2.01 9 1.02 9 0 9 C0 10.32 0 11.64 0 13 C-0.99 13 -1.98 13 -3 13 C-3 15.31 -3 17.62 -3 20 C-3.66 20 -4.32 20 -5 20 C-5 25.94 -5 31.88 -5 38 C-4.34 38 -3.68 38 -3 38 C-3 39.65 -3 41.3 -3 43 C-2.01 43 -1.02 43 0 43 C0 43.99 0 44.98 0 46 C1.32 46 2.64 46 4 46 C4 46.99 4 47.98 4 49 C4.99 49 5.98 49 7 49 C7 49.99 7 50.98 7 52 C8.98 52 10.96 52 13 52 C13 52.99 13 53.98 13 55 C15.31 55 17.62 55 20 55 C20 55.99 20 56.98 20 58 C24.29 58 28.58 58 33 58 C33 57.01 33 56.02 33 55 C33.99 55 34.98 55 36 55 C36 54.01 36 53.02 36 52 C37.32 52 38.64 52 40 52 C40 43.42 40 34.84 40 26 C38.68 26 37.36 26 36 26 C36 23.69 36 21.38 36 19 C35.01 19 34.02 19 33 19 C33 17.02 33 15.04 33 13 C30.69 13 28.38 13 26 13 C26 12.01 26 11.02 26 10 C24.02 10 22.04 10 20 10 C20 8.68 20 7.36 20 6 C14.39 6 8.78 6 3 6 Z " fill="#393744" transform="translate(127,265)"/>
<path d="M0 0 C6.93 0 13.86 0 21 0 C21 0.99 21 1.98 21 3 C23.97 3 26.94 3 30 3 C30 4.32 30 5.64 30 7 C30.99 7 31.98 7 33 7 C33 7.99 33 8.98 33 10 C33.99 10 34.98 10 36 10 C36 11.32 36 12.64 36 14 C36.99 14 37.98 14 39 14 C39 15.65 39 17.3 39 19 C39.99 19 40.98 19 42 19 C42 21.31 42 23.62 42 26 C42.99 26 43.98 26 45 26 C45 34.58 45 43.16 45 52 C44.34 52 43.68 52 43 52 C43 52.99 43 53.98 43 55 C41.68 55 40.36 55 39 55 C39 55.99 39 56.98 39 58 C38.01 58 37.02 58 36 58 C36 58.99 36 59.98 36 61 C34.02 61 32.04 61 30 61 C30 61.99 30 62.98 30 64 C26.7 64 23.4 64 20 64 C20 63.34 20 62.68 20 62 C16.7 62 13.4 62 10 62 C10 60.68 10 59.36 10 58 C8.02 58 6.04 58 4 58 C4 57.01 4 56.02 4 55 C2.68 55 1.36 55 0 55 C0 54.01 0 53.02 0 52 C-1.98 51.67 -3.96 51.34 -6 51 C-6 50.01 -6 49.02 -6 48 C-6.99 48 -7.98 48 -9 48 C-9 46.02 -9 44.04 -9 42 C-10.32 42 -11.64 42 -13 42 C-13 31.44 -13 20.88 -13 10 C-11.68 10 -10.36 10 -9 10 C-9 9.01 -9 8.02 -9 7 C-7.35 6.67 -5.7 6.34 -4 6 C-4 5.01 -4 4.02 -4 3 C-2.68 3 -1.36 3 0 3 C0 2.01 0 1.02 0 0 Z M0 7 C0 7.99 0 8.98 0 10 C-0.99 10 -1.98 10 -3 10 C-3 10.99 -3 11.98 -3 13 C-3.99 13 -4.98 13 -6 13 C-6 21.58 -6 30.16 -6 39 C-5.01 39 -4.02 39 -3 39 C-3 40.98 -3 42.96 -3 45 C-2.01 45 -1.02 45 0 45 C0 45.99 0 46.98 0 48 C1.32 48 2.64 48 4 48 C4 49.32 4 50.64 4 52 C5.98 52 7.96 52 10 52 C10 52.99 10 53.98 10 55 C13.3 55 16.6 55 20 55 C20 55.99 20 56.98 20 58 C23.3 58 26.6 58 30 58 C30 57.01 30 56.02 30 55 C30.99 55 31.98 55 33 55 C33 53.68 33 52.36 33 51 C34.65 51 36.3 51 38 51 C38 42.75 38 34.5 38 26 C37.34 26 36.68 26 36 26 C36 24.68 36 23.36 36 22 C35.01 22 34.02 22 33 22 C33 20.02 33 18.04 33 16 C32.01 16 31.02 16 30 16 C30 15.34 30 14.68 30 14 C29.01 13.67 28.02 13.34 27 13 C26.505 11.515 26.505 11.515 26 10 C23.69 10 21.38 10 19 10 C19 9.01 19 8.02 19 7 C12.73 7 6.46 7 0 7 Z " fill="#383743" transform="translate(219,301)"/>
<path d="M0 0 C0.99 0.33 1.98 0.66 3 1 C2.34 1 1.68 1 1 1 C1 53.47 1 105.94 1 160 C2.32 160 3.64 160 5 160 C5 160.66 5 161.32 5 162 C5.66 162 6.32 162 7 162 C7 164.64 7 167.28 7 170 C8.98 170 10.96 170 13 170 C13 170.99 13 171.98 13 173 C14.32 173 15.64 173 17 173 C17 173.99 17 174.98 17 176 C18.98 176 20.96 176 23 176 C23 176.99 23 177.98 23 179 C25.31 179 27.62 179 30 179 C30 179.99 30 180.98 30 182 C32.31 182 34.62 182 37 182 C37 183.32 37 184.64 37 186 C39.97 186 42.94 186 46 186 C46 186.99 46 187.98 46 189 C48.31 189 50.62 189 53 189 C53 189.99 53 190.98 53 192 C54.98 192 56.96 192 59 192 C59 193.32 59 194.64 59 196 C61.31 196 63.62 196 66 196 C66 196.99 66 197.98 66 199 C68.31 199 70.62 199 73 199 C73 199.99 73 200.98 73 202 C74.98 202 76.96 202 79 202 C79 202.99 79 203.98 79 205 C81.31 205 83.62 205 86 205 C86 205.99 86 206.98 86 208 C87.98 208 89.96 208 92 208 C92 209.32 92 210.64 92 212 C94.31 212 96.62 212 99 212 C99 212.99 99 213.98 99 215 C101.31 215 103.62 215 106 215 C106 215.99 106 216.98 106 218 C108.97 218 111.94 218 115 218 C115 219.32 115 220.64 115 222 C116.32 222 117.64 222 119 222 C119 222.99 119 223.98 119 225 C120.98 225 122.96 225 125 225 C125 225.99 125 226.98 125 228 C127.31 228 129.62 228 132 228 C132 228.99 132 229.98 132 231 C133.98 231 135.96 231 138 231 C138 232.32 138 233.64 138 235 C141.3 235 144.6 235 148 235 C148 236.98 148 238.96 148 241 C145.03 241 142.06 241 139 241 C139 239.68 139 238.36 139 237 C136.69 237 134.38 237 132 237 C132 236.01 132 235.02 132 234 C131.01 234 130.02 234 129 234 C129 233.01 129 232.02 129 231 C126.69 231 124.38 231 122 231 C122 230.01 122 229.02 122 228 C118.7 228 115.4 228 112 228 C112 227.01 112 226.02 112 225 C110.02 225 108.04 225 106 225 C106 223.68 106 222.36 106 221 C104.02 221 102.04 221 100 221 C100 220.01 100 219.02 100 218 C97.69 218 95.38 218 93 218 C93 217.01 93 216.02 93 215 C90.69 215 88.38 215 86 215 C86 214.01 86 213.02 86 212 C83.69 212 81.38 212 79 212 C79 211.01 79 210.02 79 209 C77.02 209 75.04 209 73 209 C73 207.68 73 206.36 73 205 C70.69 205 68.38 205 66 205 C66 204.01 66 203.02 66 202 C63.69 202 61.38 202 59 202 C59 201.01 59 200.02 59 199 C57.02 199 55.04 199 53 199 C53 198.01 53 197.02 53 196 C50.69 196 48.38 196 46 196 C46 195.01 46 194.02 46 193 C44.02 193 42.04 193 40 193 C40 191.68 40 190.36 40 189 C38.02 189 36.04 189 34 189 C34 188.01 34 187.02 34 186 C31.69 186 29.38 186 27 186 C27 185.01 27 184.02 27 183 C24.69 183 22.38 183 20 183 C20 181.68 20 180.36 20 179 C18.02 179 16.04 179 14 179 C14 178.01 14 177.02 14 176 C11.69 176 9.38 176 7 176 C7 175.01 7 174.02 7 173 C5.68 173 4.36 173 3 173 C3 171.02 3 169.04 3 167 C2.01 167 1.02 167 0 167 C0 111.89 0 56.78 0 0 Z " fill="#DFAD7A" transform="translate(107,222)"/>
<path d="M0 0 C10.729 -0.109 21.305 0.037 32 1 C32 1.99 32 2.98 32 4 C32.99 4.33 33.98 4.66 35 5 C35.66 5.33 36.32 5.66 37 6 C37.846 6.144 38.691 6.289 39.562 6.438 C40.367 6.623 41.171 6.809 42 7 C42.495 7.99 42.495 7.99 43 9 C43.33 9 43.66 9 44 9 C44.081 10.958 44.139 12.916 44.188 14.875 C44.24 16.511 44.24 16.511 44.293 18.18 C44.196 19.11 44.1 20.041 44 21 C41 23 41 23 39 24 C39 26.64 39 29.28 39 32 C36.234 33.383 33.99 33.112 30.898 33.098 C29.081 33.093 29.081 33.093 27.227 33.088 C25.956 33.08 24.685 33.071 23.375 33.062 C22.096 33.058 20.817 33.053 19.5 33.049 C16.333 33.037 13.167 33.021 10 33 C9.939 32.218 9.879 31.435 9.816 30.629 C9.733 29.617 9.649 28.605 9.562 27.562 C9.481 26.553 9.4 25.544 9.316 24.504 C9.268 22.064 9.268 22.064 8 21 C7.927 18.647 7.916 16.292 7.938 13.938 C7.947 12.647 7.956 11.357 7.965 10.027 C7.976 9.028 7.988 8.029 8 7 C8.99 6.67 9.98 6.34 11 6 C12.32 4.68 13.64 3.36 15 2 C10.05 1.67 5.1 1.34 0 1 C0 0.67 0 0.34 0 0 Z " fill="#3C3842" transform="translate(135,120)"/>
<path d="M0 0 C4.95 0 9.9 0 15 0 C15.66 1.32 16.32 2.64 17 4 C19.555 4.812 19.555 4.812 22 5 C22.495 6.485 22.495 6.485 23 8 C23.66 8 24.32 8 25 8 C25.081 9.958 25.139 11.916 25.188 13.875 C25.24 15.511 25.24 15.511 25.293 17.18 C25.196 18.11 25.1 19.041 25 20 C22 22 22 22 20 23 C20 25.97 20 28.94 20 32 C15.896 32.029 11.792 32.047 7.688 32.062 C6.52 32.071 5.353 32.079 4.15 32.088 C3.032 32.091 1.914 32.094 0.762 32.098 C-0.786 32.106 -0.786 32.106 -2.365 32.114 C-5 32 -5 32 -8 31 C-8 28.36 -8 25.72 -8 23 C-8.639 22.711 -9.279 22.422 -9.938 22.125 C-12 21 -12 21 -13 19 C-13.203 16.758 -13.203 16.758 -13.25 14.125 C-13.276 13.261 -13.302 12.398 -13.328 11.508 C-12.927 8.443 -12.172 7.182 -10 5 C-7.773 4.023 -7.773 4.023 -5.375 3.375 C-3.018 2.761 -3.018 2.761 -1 2 C-0.67 1.34 -0.34 0.68 0 0 Z M-12 10 C-12 12.64 -12 15.28 -12 18 C-11.67 18 -11.34 18 -11 18 C-11 15.36 -11 12.72 -11 10 C-11.33 10 -11.66 10 -12 10 Z " fill="#878687" transform="translate(140,87)"/>
<path d="M0 0 C2.396 -0.054 4.791 -0.094 7.188 -0.125 C8.198 -0.15 8.198 -0.15 9.229 -0.176 C13.284 -0.215 16.39 0.112 20 2 C20.66 2.66 21.32 3.32 22 4 C23.32 4.66 24.64 5.32 26 6 C26 10.62 26 15.24 26 20 C25.01 20.33 24.02 20.66 23 21 C23 24.3 23 27.6 23 31 C20.644 32.178 19.043 32.201 16.414 32.316 C15.025 32.379 15.025 32.379 13.608 32.444 C12.624 32.483 11.639 32.522 10.625 32.562 C9.632 32.605 8.638 32.647 7.615 32.691 C0.739 32.97 -6.118 33.131 -13 33 C-13 32.67 -13 32.34 -13 32 C-9.7 32 -6.4 32 -3 32 C-3.66 31.67 -4.32 31.34 -5 31 C-5 27.7 -5 24.4 -5 21 C-5.99 20.67 -6.98 20.34 -8 20 C-8.054 18.042 -8.093 16.084 -8.125 14.125 C-8.148 13.034 -8.171 11.944 -8.195 10.82 C-8 8 -8 8 -6 6 C-6 5.67 -6 5.34 -6 5 C-4.35 5 -2.7 5 -1 5 C-0.67 3.35 -0.34 1.7 0 0 Z " fill="#46444F" transform="translate(153,53)"/>
<path d="M0 0 C5.28 0 10.56 0 16 0 C16 0.66 16 1.32 16 2 C16.66 2.33 17.32 2.66 18 3 C20.667 4.333 23.333 5.667 26 7 C26 11.29 26 15.58 26 20 C22 22 22 22 19 23 C19 25.97 19 28.94 19 32 C14.854 32.029 10.708 32.047 6.562 32.062 C5.378 32.071 4.194 32.079 2.975 32.088 C1.85 32.091 0.725 32.094 -0.434 32.098 C-1.997 32.106 -1.997 32.106 -3.592 32.114 C-6 32 -6 32 -7 31 C-7.233 29.318 -7.413 27.629 -7.562 25.938 C-7.646 25.018 -7.73 24.099 -7.816 23.152 C-7.907 22.087 -7.907 22.087 -8 21 C-8.99 20.67 -9.98 20.34 -11 20 C-11.081 18.209 -11.139 16.417 -11.188 14.625 C-11.222 13.627 -11.257 12.63 -11.293 11.602 C-11.196 10.743 -11.1 9.885 -11 9 C-10.01 8.34 -9.02 7.68 -8 7 C-7.34 6.299 -6.68 5.597 -6 4.875 C-4 3 -4 3 -1 3 C-0.67 2.01 -0.34 1.02 0 0 Z M-10 10 C-10 12.97 -10 15.94 -10 19 C-9.67 19 -9.34 19 -9 19 C-9 16.03 -9 13.06 -9 10 C-9.33 10 -9.66 10 -10 10 Z M-6 23 C-6 24.65 -6 26.3 -6 28 C-5.67 28 -5.34 28 -5 28 C-5 26.35 -5 24.7 -5 23 C-5.33 23 -5.66 23 -6 23 Z " fill="#3F3A42" transform="translate(342,87)"/>
<path d="M0 0 C0 0.66 0 1.32 0 2 C0.66 2.33 1.32 2.66 2 3 C4 4 6 5 8 6 C8.054 8.125 8.093 10.25 8.125 12.375 C8.148 13.558 8.171 14.742 8.195 15.961 C8 19 8 19 6 21 C5.623 23.336 5.495 25.643 5.344 28.004 C5.23 28.663 5.117 29.321 5 30 C2.299 31.35 0.173 31.13 -2.848 31.133 C-4.01 31.134 -5.172 31.135 -6.369 31.137 C-7.588 31.133 -8.807 31.129 -10.062 31.125 C-11.285 31.129 -12.508 31.133 -13.768 31.137 C-14.928 31.135 -16.089 31.134 -17.285 31.133 C-18.356 31.132 -19.428 31.131 -20.531 31.129 C-23 31 -23 31 -24 30 C-24.322 27.421 -24.513 24.841 -24.719 22.25 C-24.762 20.033 -24.762 20.033 -26 19 C-26.073 16.647 -26.084 14.292 -26.062 11.938 C-26.053 10.647 -26.044 9.357 -26.035 8.027 C-26.024 7.028 -26.012 6.029 -26 5 C-24.35 4.67 -22.7 4.34 -21 4 C-21 3.34 -21 2.68 -21 2 C-15.413 -3.009 -6.797 -1.527 0 0 Z M-23 22 C-23 24.31 -23 26.62 -23 29 C-22.67 29 -22.34 29 -22 29 C-22 26.69 -22 24.38 -22 22 C-22.33 22 -22.66 22 -23 22 Z " fill="#555159" transform="translate(344,122)"/>
<path d="M0 0 C5.94 0 11.88 0 18 0 C18 0.66 18 1.32 18 2 C18.66 2.33 19.32 2.66 20 3 C22.179 4.566 24.099 6.099 26 8 C26.195 11.039 26.195 11.039 26.125 14.625 C26.107 15.814 26.089 17.002 26.07 18.227 C26.047 19.142 26.024 20.057 26 21 C24.35 21 22.7 21 21 21 C21 24.3 21 27.6 21 31 C16.306 32.195 11.745 32.148 6.938 32.125 C6.135 32.129 5.333 32.133 4.506 32.137 C3.729 32.135 2.953 32.134 2.152 32.133 C1.451 32.132 0.75 32.131 0.027 32.129 C-2 32 -2 32 -6 31 C-6 28.03 -6 25.06 -6 22 C-5.34 21.67 -4.68 21.34 -4 21 C-5.32 20.67 -6.64 20.34 -8 20 C-8.33 15.71 -8.66 11.42 -9 7 C-7.658 6.329 -6.303 5.683 -4.938 5.062 C-2.838 4.15 -2.838 4.15 -2 2 C-1.34 2 -0.68 2 0 2 C0 1.34 0 0.68 0 0 Z " fill="#535058" transform="translate(326,53)"/>
<path d="M0 0 C0.749 0.005 1.498 0.01 2.269 0.016 C3.078 0.019 3.887 0.022 4.72 0.026 C5.571 0.034 6.421 0.042 7.297 0.051 C8.151 0.056 9.005 0.06 9.885 0.065 C12.001 0.077 14.118 0.094 16.234 0.114 C16.894 1.434 17.554 2.754 18.234 4.114 C18.894 4.114 19.554 4.114 20.234 4.114 C20.234 4.774 20.234 5.434 20.234 6.114 C23.204 6.609 23.204 6.609 26.234 7.114 C26.342 8.883 26.42 10.654 26.484 12.426 C26.531 13.412 26.577 14.398 26.625 15.414 C26.234 18.114 26.234 18.114 24.265 19.645 C23.26 20.372 23.26 20.372 22.234 21.114 C21.539 23.608 21.539 23.608 21.484 26.301 C21.427 27.202 21.371 28.103 21.312 29.031 C21.286 29.719 21.261 30.406 21.234 31.114 C20.244 31.114 19.254 31.114 18.234 31.114 C16.41 31.125 14.586 31.137 12.761 31.149 C10.565 31.158 8.368 31.167 6.172 31.176 C5.057 31.184 3.943 31.193 2.795 31.201 C1.2 31.206 1.2 31.206 -0.426 31.211 C-1.89 31.219 -1.89 31.219 -3.383 31.227 C-5.766 31.114 -5.766 31.114 -7.766 30.114 C-8.145 27.864 -8.145 27.864 -8.328 25.114 C-8.301 21.806 -8.301 21.806 -9.766 19.114 C-9.891 17.304 -9.942 15.49 -9.953 13.676 C-9.968 12.687 -9.982 11.699 -9.996 10.68 C-9.766 8.114 -9.766 8.114 -7.766 6.114 C-6.446 6.114 -5.126 6.114 -3.766 6.114 C-3.621 5.309 -3.477 4.505 -3.328 3.676 C-2.558 0.164 -2.558 0.164 0 0 Z M24.234 8.114 C24.234 11.414 24.234 14.714 24.234 18.114 C24.564 18.114 24.894 18.114 25.234 18.114 C25.234 14.814 25.234 11.514 25.234 8.114 C24.904 8.114 24.574 8.114 24.234 8.114 Z " fill="#5F5E66" transform="translate(292.765869140625,32.886474609375)"/>
<path d="M0 0 C5.94 0 11.88 0 18 0 C18.66 1.98 19.32 3.96 20 6 C21.65 6 23.3 6 25 6 C25.054 8.125 25.093 10.25 25.125 12.375 C25.148 13.558 25.171 14.742 25.195 15.961 C25 19 25 19 23 21 C22.757 23.211 22.757 23.211 22.875 25.625 C22.893 26.442 22.911 27.26 22.93 28.102 C22.953 28.728 22.976 29.355 23 30 C19.762 31.079 17.422 31.114 14.02 31.098 C12.856 31.094 11.693 31.091 10.494 31.088 C9.279 31.08 8.064 31.071 6.812 31.062 C5.586 31.058 4.359 31.053 3.096 31.049 C0.064 31.037 -2.968 31.021 -6 31 C-6 28.03 -6 25.06 -6 22 C-6.66 21.67 -7.32 21.34 -8 21 C-8.379 18.348 -8.379 18.348 -8.562 15.062 C-8.695 10.878 -8.695 10.878 -10 7 C-8.02 6.67 -6.04 6.34 -4 6 C-3.67 5.01 -3.34 4.02 -3 3 C-2.34 2.67 -1.68 2.34 -1 2 C-0.67 1.34 -0.34 0.68 0 0 Z " fill="#4F4C57" transform="translate(190,33)"/>
<path d="M0 0 C5.61 0 11.22 0 17 0 C17 1.32 17 2.64 17 4 C18.98 4 20.96 4 23 4 C23 4.99 23 5.98 23 7 C25.31 7 27.62 7 30 7 C30 8.98 30 10.96 30 13 C30.99 13 31.98 13 33 13 C33 15.31 33 17.62 33 20 C34.32 20 35.64 20 37 20 C37 28.58 37 37.16 37 46 C35.68 46 34.36 46 33 46 C33 46.99 33 47.98 33 49 C32.01 49 31.02 49 30 49 C30 49.99 30 50.98 30 52 C25.71 52 21.42 52 17 52 C17 51.01 17 50.02 17 49 C14.69 49 12.38 49 10 49 C10 48.01 10 47.02 10 46 C8.02 46 6.04 46 4 46 C4 45.01 4 44.02 4 43 C3.01 43 2.02 43 1 43 C1 42.01 1 41.02 1 40 C-0.32 40 -1.64 40 -3 40 C-3 39.01 -3 38.02 -3 37 C-3.99 37 -4.98 37 -6 37 C-6 35.35 -6 33.7 -6 32 C-6.66 32 -7.32 32 -8 32 C-8 26.06 -8 20.12 -8 14 C-7.34 14 -6.68 14 -6 14 C-6 11.69 -6 9.38 -6 7 C-5.01 7 -4.02 7 -3 7 C-3 5.68 -3 4.36 -3 3 C-2.01 3 -1.02 3 0 3 C0 2.01 0 1.02 0 0 Z M4 7 C4 7.99 4 8.98 4 10 C2.68 10 1.36 10 0 10 C0 10.99 0 11.98 0 13 C-0.99 13 -1.98 13 -3 13 C-3 18.61 -3 24.22 -3 30 C-1.68 30 -0.36 30 1 30 C1 31.98 1 33.96 1 36 C1.99 36 2.98 36 4 36 C4 37.32 4 38.64 4 40 C5.98 40 7.96 40 10 40 C10 40.99 10 41.98 10 43 C15.28 43 20.56 43 26 43 C26 42.01 26 41.02 26 40 C27.32 40 28.64 40 30 40 C30 32.41 30 24.82 30 17 C29.01 17 28.02 17 27 17 C27 16.01 27 15.02 27 14 C25.68 14 24.36 14 23 14 C23 12.68 23 11.36 23 10 C21.35 10 19.7 10 18 10 C18 9.01 18 8.02 18 7 C13.38 7 8.76 7 4 7 Z " fill="#F0F1F2" transform="translate(130,271)"/>
<path d="M0 0 C5.94 0 11.88 0 18 0 C18.66 1.32 19.32 2.64 20 4 C21.656 4.382 23.325 4.714 25 5 C27.244 6.674 27.921 7.602 28.469 10.375 C28.5 13.005 28.495 15.413 28 18 C26.352 19.03 24.685 20.031 23 21 C22.534 24.035 22.712 26.952 23 30 C20.466 31.267 18.678 31.129 15.844 31.133 C14.822 31.134 13.799 31.135 12.746 31.137 C11.675 31.133 10.604 31.129 9.5 31.125 C7.893 31.131 7.893 31.131 6.254 31.137 C5.232 31.135 4.209 31.134 3.156 31.133 C2.216 31.132 1.276 31.131 0.307 31.129 C-2 31 -2 31 -4 30 C-3.965 29.374 -3.93 28.747 -3.895 28.102 C-3.867 27.284 -3.84 26.467 -3.812 25.625 C-3.778 24.813 -3.743 24.001 -3.707 23.164 C-3.804 22.45 -3.9 21.736 -4 21 C-4.99 20.34 -5.98 19.68 -7 19 C-7.293 15.742 -7.293 15.742 -7.188 11.875 C-7.16 10.594 -7.133 9.312 -7.105 7.992 C-7.071 7.005 -7.036 6.017 -7 5 C-5.35 4.67 -3.7 4.34 -2 4 C-2 3.34 -2 2.68 -2 2 C-1.34 2 -0.68 2 0 2 C0 1.34 0 0.68 0 0 Z M26 8 C26 10.97 26 13.94 26 17 C26.33 17 26.66 17 27 17 C27 14.03 27 11.06 27 8 C26.67 8 26.34 8 26 8 Z " fill="#56555D" transform="translate(240,23)"/>
<path d="M0 0 C6.27 0 12.54 0 19 0 C19 0.99 19 1.98 19 3 C21.31 3 23.62 3 26 3 C26.495 4.485 26.495 4.485 27 6 C27.99 6.33 28.98 6.66 30 7 C30 7.66 30 8.32 30 9 C30.99 9 31.98 9 33 9 C33 10.98 33 12.96 33 15 C33.99 15 34.98 15 36 15 C36 16.32 36 17.64 36 19 C36.66 19 37.32 19 38 19 C38 27.25 38 35.5 38 44 C36.35 44 34.7 44 33 44 C33 45.32 33 46.64 33 48 C32.01 48 31.02 48 30 48 C30 48.99 30 49.98 30 51 C26.7 51 23.4 51 20 51 C20 50.01 20 49.02 20 48 C16.7 48 13.4 48 10 48 C10 47.01 10 46.02 10 45 C8.02 45 6.04 45 4 45 C4 43.68 4 42.36 4 41 C2.68 41 1.36 41 0 41 C0 40.01 0 39.02 0 38 C-0.99 38 -1.98 38 -3 38 C-3 36.02 -3 34.04 -3 32 C-3.99 32 -4.98 32 -6 32 C-6 23.42 -6 14.84 -6 6 C-5.01 6 -4.02 6 -3 6 C-3 5.01 -3 4.02 -3 3 C-2.01 3 -1.02 3 0 3 C0 2.01 0 1.02 0 0 Z M6 6 C6 6.99 6 7.98 6 9 C5.01 9 4.02 9 3 9 C3 9.99 3 10.98 3 12 C2.01 12 1.02 12 0 12 C0 18.27 0 24.54 0 31 C0.99 31 1.98 31 3 31 C3 32.32 3 33.64 3 35 C3.99 35 4.98 35 6 35 C6 35.99 6 36.98 6 38 C7.32 38 8.64 38 10 38 C10 38.99 10 39.98 10 41 C15.666 42.225 21.237 42.092 27 42 C27 41.34 27 40.68 27 40 C27.99 40 28.98 40 30 40 C30 39.34 30 38.68 30 38 C30.99 38 31.98 38 33 38 C33 32.72 33 27.44 33 22 C32.01 22 31.02 22 30 22 C30 19.69 30 17.38 30 15 C29.01 15 28.02 15 27 15 C26.67 13.02 26.34 11.04 26 9 C24.02 9 22.04 9 20 9 C20 8.01 20 7.02 20 6 C15.38 6 10.76 6 6 6 Z " fill="#F5F6F6" transform="translate(219,308)"/>
<path d="M0 0 C4.29 0 8.58 0 13 0 C13 1.32 13 2.64 13 4 C14.32 4 15.64 4 17 4 C17 4.99 17 5.98 17 7 C18.98 7 20.96 7 23 7 C23 10.63 23 14.26 23 18 C21.68 18.33 20.36 18.66 19 19 C19 22.63 19 26.26 19 30 C11.41 30 3.82 30 -4 30 C-4 26.7 -4 23.4 -4 20 C-5.65 19.67 -7.3 19.34 -9 19 C-9 15.37 -9 11.74 -9 8 C-7.02 7.67 -5.04 7.34 -3 7 C-3 5.68 -3 4.36 -3 3 C-2.01 3 -1.02 3 0 3 C0 2.01 0 1.02 0 0 Z " fill="#2D2C3B" transform="translate(242,154)"/>
<path d="M0 0 C2.31 0 4.62 0 7 0 C7 0.99 7 1.98 7 3 C9.31 3 11.62 3 14 3 C14 4.32 14 5.64 14 7 C14.99 7 15.98 7 17 7 C17 7.99 17 8.98 17 10 C17.99 10 18.98 10 20 10 C20 10.99 20 11.98 20 13 C20.99 13 21.98 13 23 13 C23 12.01 23 11.02 23 10 C24.32 10 25.64 10 27 10 C27 9.01 27 8.02 27 7 C29.97 7 32.94 7 36 7 C36 7.99 36 8.98 36 10 C36.99 10 37.98 10 39 10 C39 10.99 39 11.98 39 13 C39.99 13 40.98 13 42 13 C42 13.99 42 14.98 42 16 C42.66 16 43.32 16 44 16 C44 17.32 44 18.64 44 20 C44.99 20 45.98 20 47 20 C47 24.29 47 28.58 47 33 C44.69 33 42.38 33 40 33 C40 29.7 40 26.4 40 23 C38.68 23 37.36 23 36 23 C36 22.01 36 21.02 36 20 C35.01 20 34.02 20 33 20 C33 18.68 33 17.36 33 16 C32.01 16 31.02 16 30 16 C30 16.99 30 17.98 30 19 C29.01 19 28.02 19 27 19 C27 20.32 27 21.64 27 23 C23.7 23 20.4 23 17 23 C17 22.01 17 21.02 17 20 C16.01 20 15.02 20 14 20 C14 17.69 14 15.38 14 13 C11.69 13 9.38 13 7 13 C7 12.01 7 11.02 7 10 C6.01 10 5.02 10 4 10 C4 11.32 4 12.64 4 14 C3.01 14 2.02 14 1 14 C1 14.99 1 15.98 1 17 C-1.31 17 -3.62 17 -6 17 C-6 13.7 -6 10.4 -6 7 C-5.01 7 -4.02 7 -3 7 C-3 5.68 -3 4.36 -3 3 C-2.01 3 -1.02 3 0 3 C0 2.01 0 1.02 0 0 Z " fill="#363441" transform="translate(166,346)"/>
<path d="M0 0 C0.99 0.33 1.98 0.66 3 1 C2.34 1 1.68 1 1 1 C1 53.47 1 105.94 1 160 C2.32 160 3.64 160 5 160 C5 160.66 5 161.32 5 162 C5.66 162 6.32 162 7 162 C7 164.64 7 167.28 7 170 C8.98 170 10.96 170 13 170 C13 170.99 13 171.98 13 173 C14.32 173 15.64 173 17 173 C17 173.99 17 174.98 17 176 C18.98 176 20.96 176 23 176 C23 176.99 23 177.98 23 179 C25.31 179 27.62 179 30 179 C30 179.99 30 180.98 30 182 C32.31 182 34.62 182 37 182 C37 183.32 37 184.64 37 186 C39.97 186 42.94 186 46 186 C46 186.99 46 187.98 46 189 C48.31 189 50.62 189 53 189 C53 189.99 53 190.98 53 192 C54.98 192 56.96 192 59 192 C59 192.33 59 192.66 59 193 C57.02 193 55.04 193 53 193 C53 193.66 53 194.32 53 195 C51.02 195 49.04 195 47 195 C47 194.01 47 193.02 47 192 C44.69 192 42.38 192 40 192 C40 191.01 40 190.02 40 189 C38.02 189 36.04 189 34 189 C34 188.01 34 187.02 34 186 C31.69 186 29.38 186 27 186 C27 185.01 27 184.02 27 183 C24.69 183 22.38 183 20 183 C20 181.68 20 180.36 20 179 C18.02 179 16.04 179 14 179 C14 178.01 14 177.02 14 176 C11.69 176 9.38 176 7 176 C7 175.01 7 174.02 7 173 C5.68 173 4.36 173 3 173 C3 171.02 3 169.04 3 167 C2.01 167 1.02 167 0 167 C0 111.89 0 56.78 0 0 Z " fill="#CAA983" transform="translate(107,222)"/>
<path d="M0 0 C3.3 0 6.6 0 10 0 C10 0.99 10 1.98 10 3 C10.99 3 11.98 3 13 3 C13 3.99 13 4.98 13 6 C14.32 6 15.64 6 17 6 C17 11.61 17 17.22 17 23 C12.38 23 7.76 23 3 23 C3 21.68 3 20.36 3 19 C2.01 19 1.02 19 0 19 C0 18.01 0 17.02 0 16 C-0.99 16 -1.98 16 -3 16 C-3 11.38 -3 6.76 -3 2 C-2.01 2 -1.02 2 0 2 C0 1.34 0 0.68 0 0 Z " fill="#EBEBED" transform="translate(137,285)"/>
<path d="M0 0 C3.3 0 6.6 0 10 0 C10.33 1.65 10.66 3.3 11 5 C11.99 5.33 12.98 5.66 14 6 C14 6.33 14 6.66 14 7 C17.403 7.677 17.403 7.677 21 8 C21.66 7.34 22.32 6.68 23 6 C23 10.29 23 14.58 23 19 C20.69 19.66 18.38 20.32 16 21 C15.67 23.64 15.34 26.28 15 29 C7.74 29 0.48 29 -7 29 C-6.67 25.7 -6.34 22.4 -6 19 C-7.32 19 -8.64 19 -10 19 C-10 15.7 -10 12.4 -10 9 C-7 13 -7 13 -7 17 C-5.35 17 -3.7 17 -2 17 C-2 19.31 -2 21.62 -2 24 C2.29 24 6.58 24 11 24 C11 21.36 11 18.72 11 16 C12.32 16 13.64 16 15 16 C15 14.35 15 12.7 15 11 C12.36 11 9.72 11 7 11 C7 8.69 7 6.38 7 4 C4.69 4 2.38 4 0 4 C0 2.68 0 1.36 0 0 Z " fill="#38353F" transform="translate(345,88)"/>
<path d="M0 0 C1.352 0.153 1.352 0.153 2.73 0.309 C3.418 0.392 4.105 0.476 4.812 0.562 C4.812 1.222 4.812 1.882 4.812 2.562 C3.822 2.562 2.833 2.562 1.812 2.562 C1.812 3.882 1.812 5.202 1.812 6.562 C-0.167 6.893 -2.148 7.222 -4.188 7.562 C-4.188 11.192 -4.188 14.822 -4.188 18.562 C-2.537 18.892 -0.887 19.222 0.812 19.562 C0.812 21.542 0.812 23.523 0.812 25.562 C-2.157 25.562 -5.127 25.562 -8.188 25.562 C-8.188 24.572 -8.188 23.583 -8.188 22.562 C-10.498 22.562 -12.808 22.562 -15.188 22.562 C-15.518 21.572 -15.847 20.583 -16.188 19.562 C-16.847 19.233 -17.507 18.903 -18.188 18.562 C-18.188 14.602 -18.188 10.643 -18.188 6.562 C-17.197 6.232 -16.208 5.903 -15.188 5.562 C-14.857 4.572 -14.528 3.583 -14.188 2.562 C-12.208 2.562 -10.227 2.562 -8.188 2.562 C-8.188 1.903 -8.188 1.243 -8.188 0.562 C-4.987 -0.504 -3.302 -0.386 0 0 Z " fill="#FCE6BA" transform="translate(237.1875,154.4375)"/>
<path d="M0 0 C2.31 0 4.62 0 7 0 C7 0.99 7 1.98 7 3 C7.99 3 8.98 3 10 3 C10 3.99 10 4.98 10 6 C10.99 6 11.98 6 13 6 C13 7.32 13 8.64 13 10 C13.99 10 14.98 10 16 10 C16 14.29 16 18.58 16 23 C6.893 24.205 6.893 24.205 3 23 C3 22.01 3 21.02 3 20 C2.01 20 1.02 20 0 20 C0 18.68 0 17.36 0 16 C-0.99 16 -1.98 16 -3 16 C-3 11.71 -3 7.42 -3 3 C-2.01 3 -1.02 3 0 3 C0 2.01 0 1.02 0 0 Z " fill="#E9E9EB" transform="translate(229,320)"/>
<path d="M0 0 C1.32 0.33 2.64 0.66 4 1 C3.34 1.66 2.68 2.32 2 3 C2.33 3.66 2.66 4.32 3 5 C2.01 5 1.02 5 0 5 C0 7.31 0 9.62 0 12 C1.32 12 2.64 12 4 12 C4 14.31 4 16.62 4 19 C8.95 19 13.9 19 19 19 C19 17.68 19 16.36 19 15 C21.97 15.495 21.97 15.495 25 16 C25 18.97 25 21.94 25 25 C21.762 26.079 19.422 26.114 16.02 26.098 C14.856 26.094 13.693 26.091 12.494 26.088 C11.279 26.08 10.064 26.071 8.812 26.062 C7.586 26.058 6.359 26.053 5.096 26.049 C2.064 26.037 -0.968 26.021 -4 26 C-4 23.03 -4 20.06 -4 17 C-4.66 16.67 -5.32 16.34 -6 16 C-6.379 13.348 -6.379 13.348 -6.562 10.062 C-6.695 5.878 -6.695 5.878 -8 2 C-5.36 2 -2.72 2 0 2 C0 1.34 0 0.68 0 0 Z " fill="#312F3F" transform="translate(188,38)"/>
<path d="M0 0 C0.33 0 0.66 0 1 0 C1 1.65 1 3.3 1 5 C-1.31 5 -3.62 5 -6 5 C-6 6.98 -6 8.96 -6 11 C-4.68 11 -3.36 11 -2 11 C-2 13.64 -2 16.28 -2 19 C2.29 19 6.58 19 11 19 C11 16.69 11 14.38 11 12 C12.32 12 13.64 12 15 12 C15 9.69 15 7.38 15 5 C12.69 5 10.38 5 8 5 C8 3.35 8 1.7 8 0 C8.33 1.32 8.66 2.64 9 4 C12.63 3.67 16.26 3.34 20 3 C20 6.96 20 10.92 20 15 C17.525 14.505 17.525 14.505 15 14 C15 17.3 15 20.6 15 24 C7.74 24 0.48 24 -7 24 C-7 20.7 -7 17.4 -7 14 C-8.65 13.67 -10.3 13.34 -12 13 C-11.67 9.7 -11.34 6.4 -11 3 C-7.37 3.33 -3.74 3.66 0 4 C0 2.68 0 1.36 0 0 Z " fill="#302F3D" transform="translate(142,93)"/>
<path d="M0 0 C6.27 0 12.54 0 19 0 C19 0.99 19 1.98 19 3 C19.99 3 20.98 3 22 3 C22 5.31 22 7.62 22 10 C20.02 10 18.04 10 16 10 C16 10.99 16 11.98 16 13 C10.72 13 5.44 13 0 13 C0 11.68 0 10.36 0 9 C-2.31 9 -4.62 9 -7 9 C-7 7.02 -7 5.04 -7 3 C-4.69 3 -2.38 3 0 3 C0 2.01 0 1.02 0 0 Z " fill="#FEE5BB" transform="translate(265,242)"/>
<path d="M0 0 C0.495 1.485 0.495 1.485 1 3 C-1.31 3 -3.62 3 -6 3 C-6 3.99 -6 4.98 -6 6 C-6.99 6 -7.98 6 -9 6 C-9 6.99 -9 7.98 -9 9 C-11.31 9 -13.62 9 -16 9 C-16 10.32 -16 11.64 -16 13 C-17.98 13 -19.96 13 -22 13 C-22 13.99 -22 14.98 -22 16 C-24.31 16 -26.62 16 -29 16 C-29 16.99 -29 17.98 -29 19 C-30.98 19 -32.96 19 -35 19 C-35 20.32 -35 21.64 -35 23 C-36.32 23 -37.64 23 -39 23 C-39 23.99 -39 24.98 -39 26 C-40.98 26 -42.96 26 -45 26 C-45 26.99 -45 27.98 -45 29 C-46.98 29 -48.96 29 -51 29 C-51 29.99 -51 30.98 -51 32 C-53.31 32 -55.62 32 -58 32 C-58 33.32 -58 34.64 -58 36 C-59.98 36 -61.96 36 -64 36 C-64 34.68 -64 33.36 -64 32 C-63.01 32 -62.02 32 -61 32 C-61 31.01 -61 30.02 -61 29 C-59.68 29 -58.36 29 -57 29 C-57 28.34 -57 27.68 -57 27 C-54.03 26.67 -51.06 26.34 -48 26 C-47.67 25.01 -47.34 24.02 -47 23 C-44.67 19.97 -42.657 19.674 -39 19 C-38.67 18.34 -38.34 17.68 -38 17 C-35.67 16.322 -33.336 15.656 -31 15 C-30.34 14.34 -29.68 13.68 -29 13 C-27.68 13 -26.36 13 -25 13 C-25 12.01 -25 11.02 -25 10 C-23.02 10 -21.04 10 -19 10 C-18.67 8.68 -18.34 7.36 -18 6 C-16.02 6 -14.04 6 -12 6 C-12 5.01 -12 4.02 -12 3 C-7.947 2.018 -4.161 1.918 0 2 C0 1.34 0 0.68 0 0 Z " fill="#FCE5BD" transform="translate(348,242)"/>
<path d="M0 0 C0.33 1.32 0.66 2.64 1 4 C-0.98 4 -2.96 4 -5 4 C-5 5.98 -5 7.96 -5 10 C-3.68 10 -2.36 10 -1 10 C-1 12.64 -1 15.28 -1 18 C3.29 18 7.58 18 12 18 C12 15.69 12 13.38 12 11 C12.99 10.67 13.98 10.34 15 10 C15.33 8.35 15.66 6.7 16 5 C16.33 5 16.66 5 17 5 C17.381 7.326 17.713 9.661 18 12 C17.67 12.33 17.34 12.66 17 13 C16.67 16.3 16.34 19.6 16 23 C8.41 23 0.82 23 -7 23 C-7.33 21.02 -7.66 19.04 -8 17 C-8.33 19.31 -8.66 21.62 -9 24 C-9.33 24 -9.66 24 -10 24 C-10.194 22.188 -10.38 20.376 -10.562 18.562 C-10.667 17.553 -10.771 16.544 -10.879 15.504 C-10.939 14.264 -10.939 14.264 -11 13 C-10.67 12.67 -10.34 12.34 -10 12 C-9.928 10.314 -9.916 8.625 -9.938 6.938 C-9.958 5.308 -9.979 3.679 -10 2 C-6.7 2.33 -3.4 2.66 0 3 C0 2.01 0 1.02 0 0 Z " fill="#312F3C" transform="translate(295,39)"/>
<path d="M0 0 C1.98 0 3.96 0 6 0 C6 1.65 6 3.3 6 5 C8.64 5 11.28 5 14 5 C14 6.98 14 8.96 14 11 C12.68 11.33 11.36 11.66 10 12 C10 14.31 10 16.62 10 19 C5.38 19 0.76 19 -4 19 C-4 16.69 -4 14.38 -4 12 C-4.99 12 -5.98 12 -7 12 C-7 10.02 -7 8.04 -7 6 C-4.69 6 -2.38 6 0 6 C0 4.02 0 2.04 0 0 Z " fill="#D8AF2B" transform="translate(246,159)"/>
<path d="M0 0 C6.27 0 12.54 0 19 0 C19 0.99 19 1.98 19 3 C19.99 3 20.98 3 22 3 C22 4.98 22 6.96 22 9 C21.01 9 20.02 9 19 9 C19 9.99 19 10.98 19 12 C13.72 12 8.44 12 3 12 C3 11.01 3 10.02 3 9 C0.69 9 -1.62 9 -4 9 C-4 7.02 -4 5.04 -4 3 C-3.01 2.67 -2.02 2.34 -1 2 C-0.67 1.34 -0.34 0.68 0 0 Z " fill="#FEE6BA" transform="translate(164,200)"/>
<path d="M0 0 C1.98 0 3.96 0 6 0 C6 1.65 6 3.3 6 5 C4.02 5 2.04 5 0 5 C0 6.98 0 8.96 0 11 C1.32 11 2.64 11 4 11 C4 13.97 4 16.94 4 20 C8.62 20 13.24 20 18 20 C18 17.69 18 15.38 18 13 C19.32 13.33 20.64 13.66 22 14 C22 17.63 22 21.26 22 25 C14.74 25 7.48 25 0 25 C0 21.37 0 17.74 0 14 C-1.65 14 -3.3 14 -5 14 C-5 10.7 -5 7.4 -5 4 C-3.35 3.67 -1.7 3.34 0 3 C0 2.01 0 1.02 0 0 Z " fill="#302F3E" transform="translate(324,127)"/>
<path d="M0 0 C2.31 0 4.62 0 7 0 C7 1.98 7 3.96 7 6 C9.31 6 11.62 6 14 6 C14 7.65 14 9.3 14 11 C12.68 11 11.36 11 10 11 C10 13.64 10 16.28 10 19 C5.71 19 1.42 19 -3 19 C-3 16.69 -3 14.38 -3 12 C-4.32 12 -5.64 12 -7 12 C-7 10.02 -7 8.04 -7 6 C-4.69 6 -2.38 6 0 6 C0 4.02 0 2.04 0 0 Z " fill="#EECC35" transform="translate(195,38)"/>
<path d="M0 0 C1.98 0 3.96 0 6 0 C6 1.98 6 3.96 6 6 C8.64 6 11.28 6 14 6 C14 7.65 14 9.3 14 11 C12.68 11 11.36 11 10 11 C10 13.64 10 16.28 10 19 C5.38 19 0.76 19 -4 19 C-4 16.36 -4 13.72 -4 11 C-4.99 11 -5.98 11 -7 11 C-7 9.35 -7 7.7 -7 6 C-4.69 6 -2.38 6 0 6 C0 4.02 0 2.04 0 0 Z " fill="#F7E034" transform="translate(196,151)"/>
<path d="M0 0 C1.98 0 3.96 0 6 0 C6 1.65 6 3.3 6 5 C8.64 5 11.28 5 14 5 C14 6.98 14 8.96 14 11 C12.68 11 11.36 11 10 11 C10 13.31 10 15.62 10 18 C5.71 18 1.42 18 -3 18 C-3 15.69 -3 13.38 -3 11 C-4.65 11 -6.3 11 -8 11 C-8 9.02 -8 7.04 -8 5 C-5.36 5 -2.72 5 0 5 C0 3.35 0 1.7 0 0 Z " fill="#F1DE45" transform="translate(159,59)"/>
<path d="M0 0 C2.31 0 4.62 0 7 0 C7 1.98 7 3.96 7 6 C9.31 6 11.62 6 14 6 C14 7.65 14 9.3 14 11 C13.01 11.33 12.02 11.66 11 12 C10.67 14.31 10.34 16.62 10 19 C5.71 19 1.42 19 -3 19 C-3 16.36 -3 13.72 -3 11 C-4.32 11 -5.64 11 -7 11 C-7 9.35 -7 7.7 -7 6 C-4.69 6 -2.38 6 0 6 C0 4.02 0 2.04 0 0 Z " fill="#EED541" transform="translate(331,127)"/>
<path d="M0 0 C1.98 0 3.96 0 6 0 C6 1.98 6 3.96 6 6 C8.31 6 10.62 6 13 6 C13 7.65 13 9.3 13 11 C12.01 11 11.02 11 10 11 C10 13.64 10 16.28 10 19 C5.38 19 0.76 19 -4 19 C-4 16.69 -4 14.38 -4 12 C-4.99 12 -5.98 12 -7 12 C-7 10.02 -7 8.04 -7 6 C-4.69 6 -2.38 6 0 6 C0 4.02 0 2.04 0 0 Z " fill="#EDCB33" transform="translate(246,28)"/>
<path d="M0 0 C1.98 0 3.96 0 6 0 C6 1.98 6 3.96 6 6 C8.64 6 11.28 6 14 6 C14 7.98 14 9.96 14 12 C12.68 12 11.36 12 10 12 C10 14.31 10 16.62 10 19 C5.71 19 1.42 19 -3 19 C-3 16.36 -3 13.72 -3 11 C-4.32 11 -5.64 11 -7 11 C-7 9.35 -7 7.7 -7 6 C-4.69 6 -2.38 6 0 6 C0 4.02 0 2.04 0 0 Z " fill="#F3DD4A" transform="translate(156,127)"/>
<path d="M0 0 C1.98 0 3.96 0 6 0 C6 1.98 6 3.96 6 6 C8.64 6 11.28 6 14 6 C14 7.65 14 9.3 14 11 C12.68 11 11.36 11 10 11 C10 13.64 10 16.28 10 19 C5.71 19 1.42 19 -3 19 C-3 16.69 -3 14.38 -3 12 C-4.32 12 -5.64 12 -7 12 C-7 10.02 -7 8.04 -7 6 C-4.69 6 -2.38 6 0 6 C0 4.02 0 2.04 0 0 Z " fill="#F9DF43" transform="translate(346,93)"/>
<path d="M0 0 C1.98 0 3.96 0 6 0 C6 1.98 6 3.96 6 6 C8.31 6 10.62 6 13 6 C13 7.65 13 9.3 13 11 C12.01 11 11.02 11 10 11 C10 13.64 10 16.28 10 19 C5.38 19 0.76 19 -4 19 C-4 16.36 -4 13.72 -4 11 C-4.99 11 -5.98 11 -7 11 C-7 9.35 -7 7.7 -7 6 C-4.69 6 -2.38 6 0 6 C0 4.02 0 2.04 0 0 Z " fill="#F0CA2C" transform="translate(291,151)"/>
<path d="M0 0 C1.98 0 3.96 0 6 0 C6 1.98 6 3.96 6 6 C8.31 6 10.62 6 13 6 C13 7.98 13 9.96 13 12 C12.01 12 11.02 12 10 12 C10 14.31 10 16.62 10 19 C5.71 19 1.42 19 -3 19 C-3 16.36 -3 13.72 -3 11 C-4.32 11 -5.64 11 -7 11 C-7 9.35 -7 7.7 -7 6 C-4.69 6 -2.38 6 0 6 C0 4.02 0 2.04 0 0 Z " fill="#F2CF37" transform="translate(297,38)"/>
<path d="M0 0 C1.98 0 3.96 0 6 0 C6 1.65 6 3.3 6 5 C8.31 5 10.62 5 13 5 C13 6.98 13 8.96 13 11 C11.68 11 10.36 11 9 11 C9 13.31 9 15.62 9 18 C5.04 18 1.08 18 -3 18 C-3 15.69 -3 13.38 -3 11 C-4.65 11 -6.3 11 -8 11 C-8 9.02 -8 7.04 -8 5 C-5.36 5 -2.72 5 0 5 C0 3.35 0 1.7 0 0 Z " fill="#F1D038" transform="translate(332,59)"/>
<path d="M0 0 C1.65 0 3.3 0 5 0 C5 1.98 5 3.96 5 6 C7.31 6 9.62 6 12 6 C12 7.65 12 9.3 12 11 C11.01 11 10.02 11 9 11 C9 13.64 9 16.28 9 19 C4.71 19 0.42 19 -4 19 C-4 16.36 -4 13.72 -4 11 C-5.32 11 -6.64 11 -8 11 C-8 9.35 -8 7.7 -8 6 C-5.36 6 -2.72 6 0 6 C0 4.02 0 2.04 0 0 Z " fill="#F9DF2F" transform="translate(144,93)"/>
<path d="M0 0 C4.29 0 8.58 0 13 0 C13 0.33 13 0.66 13 1 C11.02 1.33 9.04 1.66 7 2 C7.99 2.66 8.98 3.32 10 4 C8.02 4 6.04 4 4 4 C4 6.31 4 8.62 4 11 C1.69 11 -0.62 11 -3 11 C-3 13.31 -3 15.62 -3 18 C-2.34 18 -1.68 18 -1 18 C-1.33 21.63 -1.66 25.26 -2 29 C4.6 29 11.2 29 18 29 C18 26.03 18 23.06 18 20 C18.33 20 18.66 20 19 20 C19 23.3 19 26.6 19 30 C11.41 30 3.82 30 -4 30 C-4 26.7 -4 23.4 -4 20 C-5.65 19.67 -7.3 19.34 -9 19 C-9 15.37 -9 11.74 -9 8 C-7.02 7.67 -5.04 7.34 -3 7 C-3 5.68 -3 4.36 -3 3 C-2.01 3 -1.02 3 0 3 C0 2.01 0 1.02 0 0 Z " fill="#47454A" transform="translate(242,154)"/>
<path d="M0 0 C2.31 0 4.62 0 7 0 C7 0.99 7 1.98 7 3 C8.98 3 10.96 3 13 3 C13 2.34 13 1.68 13 1 C14.98 1 16.96 1 19 1 C19 1.99 19 2.98 19 4 C21.31 4 23.62 4 26 4 C26 4.99 26 5.98 26 7 C28.31 7 30.62 7 33 7 C33 7.99 33 8.98 33 10 C34.98 10 36.96 10 39 10 C39 11.32 39 12.64 39 14 C40.98 14 42.96 14 45 14 C45.495 15.98 45.495 15.98 46 18 C45.196 17.979 44.391 17.959 43.562 17.938 C41.066 17.704 41.066 17.704 40 19 C41.98 19 43.96 19 46 19 C46 19.33 46 19.66 46 20 C43.69 20 41.38 20 39 20 C39 19.01 39 18.02 39 17 C37.02 17 35.04 17 33 17 C33 15.68 33 14.36 33 13 C30.69 13 28.38 13 26 13 C26 12.01 26 11.02 26 10 C23.69 10 21.38 10 19 10 C19 9.01 19 8.02 19 7 C17.02 7 15.04 7 13 7 C13 6.01 13 5.02 13 4 C10.69 4 8.38 4 6 4 C6 3.01 6 2.02 6 1 C4.02 1 2.04 1 0 1 C0 0.67 0 0.34 0 0 Z " fill="#D3A374" transform="translate(147,414)"/>
<path d="M0 0 C0.33 0 0.66 0 1 0 C1 1.98 1 3.96 1 6 C0.01 6.33 -0.98 6.66 -2 7 C-2.33 10.96 -2.66 14.92 -3 19 C-4.98 19 -6.96 19 -9 19 C-9 17.68 -9 16.36 -9 15 C-9.66 15.165 -10.32 15.33 -11 15.5 C-14.731 16.122 -18.219 16.064 -22 16 C-22 15.01 -22 14.02 -22 13 C-21.34 13 -20.68 13 -20 13 C-20 11.68 -20 10.36 -20 9 C-17.69 9 -15.38 9 -13 9 C-13 8.01 -13 7.02 -13 6 C-11.35 6 -9.7 6 -8 6 C-8 5.01 -8 4.02 -8 3 C-6.866 2.876 -5.731 2.752 -4.562 2.625 C-3.387 2.419 -2.211 2.213 -1 2 C-0.67 1.34 -0.34 0.68 0 0 Z " fill="#FAF8ED" transform="translate(140,197)"/>
<path d="M0 0 C0.99 0 1.98 0 3 0 C3 2.31 3 4.62 3 7 C7.62 7 12.24 7 17 7 C17 4.69 17 2.38 17 0 C18.65 0 20.3 0 22 0 C22 4.29 22 8.58 22 13 C14.74 13 7.48 13 0 13 C0 8.71 0 4.42 0 0 Z " fill="#302F42" transform="translate(239,40)"/>
<path d="M0 0 C3 4 3 4 3 8 C4.65 8 6.3 8 8 8 C8 10.31 8 12.62 8 15 C12.62 14.67 17.24 14.34 22 14 C22.33 12.35 22.66 10.7 23 9 C23.99 9.33 24.98 9.66 26 10 C25.67 13.3 25.34 16.6 25 20 C17.74 20 10.48 20 3 20 C3.33 16.7 3.66 13.4 4 10 C2.68 10 1.36 10 0 10 C0 6.7 0 3.4 0 0 Z " fill="#29293A" transform="translate(335,97)"/>
<path d="M0 0 C0.99 0 1.98 0 3 0 C3 1.32 3 2.64 3 4 C1.68 4 0.36 4 -1 4 C-1 7.63 -1 11.26 -1 15 C0.32 15 1.64 15 3 15 C3 17.97 3 20.94 3 24 C9.93 24.33 16.86 24.66 24 25 C24 22.36 24 19.72 24 17 C25.32 17.33 26.64 17.66 28 18 C27.01 18 26.02 18 25 18 C25 20.97 25 23.94 25 27 C20.854 27.029 16.708 27.047 12.562 27.062 C11.378 27.071 10.194 27.079 8.975 27.088 C7.85 27.091 6.725 27.094 5.566 27.098 C4.003 27.106 4.003 27.106 2.408 27.114 C0 27 0 27 -1 26 C-1.233 24.318 -1.413 22.629 -1.562 20.938 C-1.646 20.018 -1.73 19.099 -1.816 18.152 C-1.907 17.087 -1.907 17.087 -2 16 C-2.99 15.67 -3.98 15.34 -5 15 C-5.081 13.209 -5.139 11.417 -5.188 9.625 C-5.222 8.627 -5.257 7.63 -5.293 6.602 C-5.148 5.314 -5.148 5.314 -5 4 C-4.01 3.34 -3.02 2.68 -2 2 C-1.34 1.34 -0.68 0.68 0 0 Z M-4 5 C-4 7.97 -4 10.94 -4 14 C-3.67 14 -3.34 14 -3 14 C-3 11.03 -3 8.06 -3 5 C-3.33 5 -3.66 5 -4 5 Z M0 18 C0 19.65 0 21.3 0 23 C0.33 23 0.66 23 1 23 C1 21.35 1 19.7 1 18 C0.67 18 0.34 18 0 18 Z " fill="#97979D" transform="translate(336,92)"/>
<path d="M0 0 C2.396 -0.054 4.791 -0.094 7.188 -0.125 C8.198 -0.15 8.198 -0.15 9.229 -0.176 C13.284 -0.215 16.39 0.112 20 2 C20.66 2.66 21.32 3.32 22 4 C23.32 4.66 24.64 5.32 26 6 C26 10.62 26 15.24 26 20 C25.01 20.33 24.02 20.66 23 21 C23 24.3 23 27.6 23 31 C22.67 31 22.34 31 22 31 C21.67 27.37 21.34 23.74 21 20 C21.99 19.67 22.98 19.34 24 19 C24.33 15.7 24.66 12.4 25 9 C23.02 9.99 23.02 9.99 21 11 C18.641 11.195 18.641 11.195 16.25 11.125 C15.451 11.107 14.652 11.089 13.828 11.07 C13.225 11.047 12.622 11.024 12 11 C11.779 7.03 12.117 5.767 14 2 C10.37 2 6.74 2 3 2 C2.67 2.99 2.34 3.98 2 5 C1.01 5 0.02 5 -1 5 C-0.67 3.35 -0.34 1.7 0 0 Z " fill="#63626F" transform="translate(153,53)"/>
<path d="M0 0 C2.343 0.256 4.678 0.593 7 1 C7.33 1.66 7.66 2.32 8 3 C9.238 3.248 9.238 3.248 10.5 3.5 C11.738 3.748 11.738 3.748 13 4 C13.33 4.66 13.66 5.32 14 6 C16.64 6 19.28 6 22 6 C22 5.34 22 4.68 22 4 C25.984 2.127 29.236 1.703 33.625 1.688 C35.315 1.662 35.315 1.662 37.039 1.637 C40 2 40 2 41.805 3.422 C42.396 4.203 42.396 4.203 43 5 C44.963 7.045 46.593 8.396 49 10 C46.69 10 44.38 10 42 10 C42 9.34 42 8.68 42 8 C41.01 7.67 40.02 7.34 39 7 C39 6.01 39 5.02 39 4 C35.04 4 31.08 4 27 4 C27 4.99 27 5.98 27 7 C25.68 7 24.36 7 23 7 C23 7.99 23 8.98 23 10 C19.37 10 15.74 10 12 10 C12 9.34 12 8.68 12 8 C10.35 8 8.7 8 7 8 C6.67 7.01 6.34 6.02 6 5 C4.02 5 2.04 5 0 5 C0 3.35 0 1.7 0 0 Z M14 8 C14 8.33 14 8.66 14 9 C16.64 9 19.28 9 22 9 C22 8.67 22 8.34 22 8 C19.36 8 16.72 8 14 8 Z " fill="#9F9DA3" transform="translate(261,143)"/>
<path d="M0 0 C1.65 0 3.3 0 5 0 C5.33 4.62 5.66 9.24 6 14 C4.02 14 2.04 14 0 14 C0 15.32 0 16.64 0 18 C-0.99 18 -1.98 18 -3 18 C-3 15.69 -3 13.38 -3 11 C-4.32 11 -5.64 11 -7 11 C-7 9.35 -7 7.7 -7 6 C-4.69 6 -2.38 6 0 6 C0 4.02 0 2.04 0 0 Z " fill="#FBE344" transform="translate(246,159)"/>
<path d="M0 0 C3.63 0 7.26 0 11 0 C10.67 1.32 10.34 2.64 10 4 C7.69 4 5.38 4 3 4 C3 5.65 3 7.3 3 9 C-1.29 8.34 -5.58 7.68 -10 7 C-9.897 8.609 -9.794 10.218 -9.688 11.875 C-9.629 12.78 -9.571 13.685 -9.512 14.617 C-9.212 17.362 -9.212 17.362 -6 19 C-6.33 22.3 -6.66 25.6 -7 29 C-7.33 29 -7.66 29 -8 29 C-8 25.7 -8 22.4 -8 19 C-8.99 18.67 -9.98 18.34 -11 18 C-11.054 16.042 -11.093 14.084 -11.125 12.125 C-11.148 11.034 -11.171 9.944 -11.195 8.82 C-11 6 -11 6 -9 4 C-9 3.67 -9 3.34 -9 3 C-5.924 2.707 -5.924 2.707 -2.848 2.414 C-1.933 2.209 -1.933 2.209 -1 2 C-0.67 1.34 -0.34 0.68 0 0 Z " fill="#525259" transform="translate(156,55)"/>
<path d="M0 0 C1.647 0.114 3.292 0.241 4.938 0.375 C6.312 0.479 6.312 0.479 7.715 0.586 C8.846 0.791 8.846 0.791 10 1 C10.33 1.66 10.66 2.32 11 3 C11.33 3 11.66 3 12 3 C12.081 4.958 12.139 6.916 12.188 8.875 C12.24 10.511 12.24 10.511 12.293 12.18 C12.196 13.11 12.1 14.041 12 15 C9 17 9 17 7 18 C7 20.64 7 23.28 7 26 C4.338 27.331 2.313 27.113 -0.664 27.098 C-1.786 27.094 -2.907 27.091 -4.062 27.088 C-5.238 27.08 -6.414 27.071 -7.625 27.062 C-8.808 27.058 -9.992 27.053 -11.211 27.049 C-14.141 27.037 -17.07 27.021 -20 27 C-20 26.67 -20 26.34 -20 26 C-12.41 26 -4.82 26 3 26 C3 22.37 3 18.74 3 15 C4.65 15 6.3 15 8 15 C8 11.37 8 7.74 8 4 C6.02 4 4.04 4 2 4 C2 3.34 2 2.68 2 2 C1.34 2 0.68 2 0 2 C0 1.34 0 0.68 0 0 Z " fill="#919096" transform="translate(167,126)"/>
<path d="M0 0 C6.27 0 12.54 0 19 0 C19.33 0.66 19.66 1.32 20 2 C21.895 2.465 21.895 2.465 24.062 2.625 C25.362 2.749 26.661 2.873 28 3 C28 3.33 28 3.66 28 4 C25.69 4 23.38 4 21 4 C21 5.32 21 6.64 21 8 C20.34 8 19.68 8 19 8 C19 7.01 19 6.02 19 5 C12.4 5 5.8 5 -1 5 C-0.67 3.35 -0.34 1.7 0 0 Z " fill="#262434" transform="translate(220,302)"/>
<path d="M0 0 C0.33 0.99 0.66 1.98 1 3 C2.65 3.33 4.3 3.66 6 4 C5.67 6.64 5.34 9.28 5 12 C5.99 12 6.98 12 8 12 C8 10.35 8 8.7 8 7 C9.65 7 11.3 7 13 7 C13 5.68 13 4.36 13 3 C15.64 2.67 18.28 2.34 21 2 C21 2.99 21 3.98 21 5 C19.68 5 18.36 5 17 5 C17 7.64 17 10.28 17 13 C12.71 13 8.42 13 4 13 C4 10.69 4 8.38 4 6 C2.68 6 1.36 6 0 6 C0 4.02 0 2.04 0 0 Z " fill="#ECB41F" transform="translate(339,99)"/>
<path d="M0 0 C4.95 0 9.9 0 15 0 C14.67 0.99 14.34 1.98 14 3 C9.71 2.67 5.42 2.34 1 2 C2.65 2.33 4.3 2.66 6 3 C6.99 3.66 7.98 4.32 9 5 C7.35 5 5.7 5 4 5 C4 7.31 4 9.62 4 12 C1.36 12 -1.28 12 -4 12 C-4 11.67 -4 11.34 -4 11 C-1.69 11 0.62 11 3 11 C1.875 9.644 1.875 9.644 -1.062 9.938 C-2.517 9.968 -2.517 9.968 -4 10 C-3.67 8.68 -3.34 7.36 -3 6 C-5.31 6 -7.62 6 -10 6 C-7.795 4.857 -5.645 3.868 -3.312 3 C-0.846 2.228 -0.846 2.228 0 0 Z " fill="#737175" transform="translate(140,87)"/>
<path d="M0 0 C0.33 0 0.66 0 1 0 C1 3.63 1 7.26 1 11 C2.65 11.33 4.3 11.66 6 12 C5.67 14.97 5.34 17.94 5 21 C12.26 21 19.52 21 27 21 C27 20.34 27 19.68 27 19 C27.66 19 28.32 19 29 19 C28.67 20.32 28.34 21.64 28 23 C19.42 23 10.84 23 2 23 C2 20.03 2 17.06 2 14 C1.34 13.67 0.68 13.34 0 13 C0 8.71 0 4.42 0 0 Z " fill="#73747F" transform="translate(182,41)"/>
<path d="M0 0 C0.33 0 0.66 0 1 0 C1 1.65 1 3.3 1 5 C-0.32 5 -1.64 5 -3 5 C-3 7.64 -3 10.28 -3 13 C-7.62 13 -12.24 13 -17 13 C-17 10.36 -17 7.72 -17 5 C-16.67 5 -16.34 5 -16 5 C-16 7.31 -16 9.62 -16 12 C-15.01 12 -14.02 12 -13 12 C-13 10.35 -13 8.7 -13 7 C-11.02 7 -9.04 7 -7 7 C-7 5.68 -7 4.36 -7 3 C-4.69 3.33 -2.38 3.66 0 4 C0 2.68 0 1.36 0 0 Z " fill="#E1A822" transform="translate(209,157)"/>
<path d="M0 0 C1.98 0 3.96 0 6 0 C6 1.98 6 3.96 6 6 C7.65 6 9.3 6 11 6 C11 7.98 11 9.96 11 12 C8.36 12 5.72 12 3 12 C3 10.68 3 9.36 3 8 C2.01 7.67 1.02 7.34 0 7 C0 4.69 0 2.38 0 0 Z " fill="#312E3E" transform="translate(229,327)"/>
<path d="M0 0 C0.33 0.99 0.66 1.98 1 3 C0.01 3 -0.98 3 -2 3 C-2 3.99 -2 4.98 -2 6 C-3.98 6 -5.96 6 -8 6 C-8 9.3 -8 12.6 -8 16 C-9.32 16 -10.64 16 -12 16 C-12 17.32 -12 18.64 -12 20 C-14.31 20 -16.62 20 -19 20 C-19.33 20.66 -19.66 21.32 -20 22 C-20 19 -20 19 -19 16 C-17.02 15.67 -15.04 15.34 -13 15 C-12.951 14.374 -12.902 13.747 -12.852 13.102 C-12.777 12.284 -12.702 11.467 -12.625 10.625 C-12.521 9.407 -12.521 9.407 -12.414 8.164 C-12 6 -12 6 -10 4 C-6.375 3.875 -6.375 3.875 -3 4 C-3 3.01 -3 2.02 -3 1 C-2.01 0.67 -1.02 0.34 0 0 Z M-11 7 C-11 8.98 -11 10.96 -11 13 C-10.67 13 -10.34 13 -10 13 C-10 11.02 -10 9.04 -10 7 C-10.33 7 -10.66 7 -11 7 Z " fill="#9B999F" transform="translate(192,148)"/>
<path d="M0 0 C0.33 0 0.66 0 1 0 C1 1.98 1 3.96 1 6 C-0.32 6 -1.64 6 -3 6 C-3 8.31 -3 10.62 -3 13 C-6.3 13 -9.6 13 -13 13 C-13 11.35 -13 9.7 -13 8 C-10.69 8 -8.38 8 -6 8 C-6 6.35 -6 4.7 -6 3 C-4.02 3 -2.04 3 0 3 C0 2.01 0 1.02 0 0 Z " fill="#F2B027" transform="translate(169,133)"/>
<path d="M0 0 C0.33 0 0.66 0 1 0 C1 1.98 1 3.96 1 6 C-0.32 6 -1.64 6 -3 6 C-3 8.31 -3 10.62 -3 13 C-6.3 13 -9.6 13 -13 13 C-13 11.35 -13 9.7 -13 8 C-11.02 8 -9.04 8 -7 8 C-7 6.68 -7 5.36 -7 4 C-4.69 4 -2.38 4 0 4 C0 2.68 0 1.36 0 0 Z " fill="#EEAF20" transform="translate(172,64)"/>
<path d="M0 0 C1.32 0 2.64 0 4 0 C4 2.31 4 4.62 4 7 C5.98 7 7.96 7 10 7 C10 8.98 10 10.96 10 13 C8.02 13 6.04 13 4 13 C4 12.01 4 11.02 4 10 C2.68 10 1.36 10 0 10 C0 6.7 0 3.4 0 0 Z " fill="#383544" transform="translate(140,291)"/>
<path d="M0 0 C1.98 0 3.96 0 6 0 C5.01 0.495 5.01 0.495 4 1 C4 3.97 4 6.94 4 10 C-0.29 10 -4.58 10 -9 10 C-7.68 9.67 -6.36 9.34 -5 9 C-5 7.35 -5 5.7 -5 4 C-3.35 4 -1.7 4 0 4 C0 2.68 0 1.36 0 0 Z " fill="#F3AF21" transform="translate(149,102)"/>
<path d="M0 0 C1.932 0.017 1.932 0.017 3.902 0.035 C5.193 0.044 6.483 0.053 7.812 0.062 C8.812 0.074 9.811 0.086 10.84 0.098 C10.51 0.758 10.18 1.418 9.84 2.098 C6.777 2.723 6.777 2.723 3.84 3.098 C4.83 4.583 4.83 4.583 5.84 6.098 C3.86 6.098 1.88 6.098 -0.16 6.098 C-0.16 7.418 -0.16 8.738 -0.16 10.098 C-2.47 10.098 -4.78 10.098 -7.16 10.098 C-6.83 8.778 -6.5 7.458 -6.16 6.098 C-5.17 6.098 -4.18 6.098 -3.16 6.098 C-3.439 4.891 -3.439 4.891 -3.723 3.66 C-3.867 2.815 -4.011 1.969 -4.16 1.098 C-3.16 0.098 -3.16 0.098 0 0 Z " fill="#5F5B60" transform="translate(196.16015625,144.90234375)"/>
<path d="M0 0 C0 0.66 0 1.32 0 2 C-4.29 1.67 -8.58 1.34 -13 1 C-13 2.32 -13 3.64 -13 5 C-14.65 5 -16.3 5 -18 5 C-18 5.99 -18 6.98 -18 8 C-19.32 8.33 -20.64 8.66 -22 9 C-22.33 12.3 -22.66 15.6 -23 19 C-23.33 19 -23.66 19 -24 19 C-24 14.38 -24 9.76 -24 5 C-22.35 4.67 -20.7 4.34 -19 4 C-19 3.34 -19 2.68 -19 2 C-13.988 -2.494 -6.078 -2.026 0 0 Z " fill="#97969C" transform="translate(342,122)"/>
<path d="M0 0 C2.64 0.33 5.28 0.66 8 1 C8.33 1.99 8.66 2.98 9 4 C9.969 4.124 10.939 4.248 11.938 4.375 C13.453 4.684 13.453 4.684 15 5 C15.33 5.66 15.66 6.32 16 7 C16.99 7.165 17.98 7.33 19 7.5 C19.99 7.665 20.98 7.83 22 8 C22.667 9.333 23.333 10.667 24 12 C26.025 12.652 26.025 12.652 28 13 C25.69 13.33 23.38 13.66 21 14 C21 13.01 21 12.02 21 11 C18.69 11 16.38 11 14 11 C14 10.01 14 9.02 14 8 C12.02 8 10.04 8 8 8 C8 7.01 8 6.02 8 5 C6.02 5 4.04 5 2 5 C1.34 3.35 0.68 1.7 0 0 Z " fill="#82818A" transform="translate(311,166)"/>
<path d="M0 0 C0 3.63 0 7.26 0 11 C-1.65 11 -3.3 11 -5 11 C-5 14.3 -5 17.6 -5 21 C-5.33 21 -5.66 21 -6 21 C-6.33 19.35 -6.66 17.7 -7 16 C-7.33 16 -7.66 16 -8 16 C-8 13.69 -8 11.38 -8 9 C-7.01 9 -6.02 9 -5 9 C-5 6.36 -5 3.72 -5 1 C-1.125 0 -1.125 0 0 0 Z " fill="#272638" transform="translate(175,130)"/>
<path d="M0 0 C5.28 0 10.56 0 16 0 C16 0.66 16 1.32 16 2 C16.66 2.33 17.32 2.66 18 3 C21 4.5 21 4.5 24 6 C24 6.99 24 7.98 24 9 C17.574 9.364 17.574 9.364 15.125 7.812 C13.738 5.577 13.35 3.591 13 1 C9.7 1 6.4 1 3 1 C2.34 2.32 1.68 3.64 1 5 C-0.65 4.67 -2.3 4.34 -4 4 C-3.01 3.67 -2.02 3.34 -1 3 C-0.67 2.01 -0.34 1.02 0 0 Z " fill="#7D7F84" transform="translate(342,87)"/>
<path d="M0 0 C-0.33 1.65 -0.66 3.3 -1 5 C-4.63 5 -8.26 5 -12 5 C-12.33 4.34 -12.66 3.68 -13 3 C-15.126 2.533 -15.126 2.533 -17.562 2.375 C-18.389 2.3 -19.215 2.225 -20.066 2.148 C-20.704 2.099 -21.343 2.05 -22 2 C-22 1.67 -22 1.34 -22 1 C-14.635 0.001 -7.427 -0.103 0 0 Z " fill="#292636" transform="translate(160,324)"/>
<path d="M0 0 C10.729 -0.109 21.305 0.037 32 1 C32 1.99 32 2.98 32 4 C32.99 4.33 33.98 4.66 35 5 C34.301 4.84 33.603 4.68 32.883 4.516 C29.837 3.971 26.968 3.797 23.875 3.75 C22.841 3.724 21.807 3.698 20.742 3.672 C17.592 4.049 17.033 4.714 15 7 C14.01 7 13.02 7 12 7 C12 6.01 12 5.02 12 4 C12.99 3.34 13.98 2.68 15 2 C10.05 1.67 5.1 1.34 0 1 C0 0.67 0 0.34 0 0 Z " fill="#9E9EA1" transform="translate(135,120)"/>
<path d="M0 0 C0 0.66 0 1.32 0 2 C-0.99 2.33 -1.98 2.66 -3 3 C-3.33 5.31 -3.66 7.62 -4 10 C-6.97 10 -9.94 10 -13 10 C-13 8.35 -13 6.7 -13 5 C-11.02 5 -9.04 5 -7 5 C-7 3.68 -7 2.36 -7 1 C-4.509 0.313 -2.621 0 0 0 Z " fill="#F9B525" transform="translate(345,136)"/>
<path d="M0 0 C8.58 0 17.16 0 26 0 C26 0.33 26 0.66 26 1 C17.42 1 8.84 1 0 1 C0 0.67 0 0.34 0 0 Z " fill="#C6C6C6" transform="translate(261,490)"/>
<path d="M0 0 C7.92 0 15.84 0 24 0 C24 0.33 24 0.66 24 1 C16.08 1 8.16 1 0 1 C0 0.67 0 0.34 0 0 Z " fill="#6A6A6A" transform="translate(147,154)"/>
<path d="M0 0 C7.92 0 15.84 0 24 0 C24 0.33 24 0.66 24 1 C16.08 1 8.16 1 0 1 C0 0.67 0 0.34 0 0 Z " fill="#0A0A0F" transform="translate(225,136)"/>
<path d="M0 0 C7.92 0 15.84 0 24 0 C24 0.33 24 0.66 24 1 C16.08 1 8.16 1 0 1 C0 0.67 0 0.34 0 0 Z " fill="#A2A2A2" transform="translate(288,65)"/>
<path d="M0 0 C7.92 0 15.84 0 24 0 C24 0.33 24 0.66 24 1 C16.08 1 8.16 1 0 1 C0 0.67 0 0.34 0 0 Z " fill="#ADADAD" transform="translate(186,65)"/>
<path d="M0 0 C7.59 0 15.18 0 23 0 C23 0.33 23 0.66 23 1 C15.41 1 7.82 1 0 1 C0 0.67 0 0.34 0 0 Z " fill="#6C6C77" transform="translate(323,154)"/>
<path d="M0 0 C7.26 0 14.52 0 22 0 C22 0.33 22 0.66 22 1 C14.74 1 7.48 1 0 1 C0 0.67 0 0.34 0 0 Z " fill="#7E7E7E" transform="translate(339,120)"/>
<path d="M0 0 C0.33 0 0.66 0 1 0 C1 5.28 1 10.56 1 16 C0.67 16 0.34 16 0 16 C0 10.72 0 5.44 0 0 Z " fill="#CECECE" transform="translate(416,398)"/>
<path d="M0 0 C4.62 0 9.24 0 14 0 C14 0.33 14 0.66 14 1 C7.565 1.495 7.565 1.495 1 2 C0.67 1.34 0.34 0.68 0 0 Z " fill="#565659" transform="translate(342,85)"/>
<path d="M0 0 C4.62 0 9.24 0 14 0 C14 0.33 14 0.66 14 1 C9.38 1 4.76 1 0 1 C0 0.67 0 0.34 0 0 Z " fill="#666C6C" transform="translate(328,51)"/>
<path d="M0 0 C4.62 0 9.24 0 14 0 C14 0.33 14 0.66 14 1 C9.38 1 4.76 1 0 1 C0 0.67 0 0.34 0 0 Z " fill="#393C63" transform="translate(293,31)"/>
<path d="M0 0 C4.62 0 9.24 0 14 0 C14 0.33 14 0.66 14 1 C9.38 1 4.76 1 0 1 C0 0.67 0 0.34 0 0 Z " fill="#48485E" transform="translate(192,31)"/>
<path d="M0 0 C4.62 0 9.24 0 14 0 C14 0.33 14 0.66 14 1 C9.38 1 4.76 1 0 1 C0 0.67 0 0.34 0 0 Z " fill="#4B4B58" transform="translate(242,21)"/>
<path d="M0 0 C0.33 0 0.66 0 1 0 C1 4.29 1 8.58 1 13 C0.67 13 0.34 13 0 13 C0 8.71 0 4.42 0 0 Z " fill="#232323" transform="translate(180,60)"/>
<path d="M0 0 C4.29 0 8.58 0 13 0 C13 0.33 13 0.66 13 1 C8.71 1 4.42 1 0 1 C0 0.67 0 0.34 0 0 Z " fill="#6D6D72" transform="translate(155,51)"/>
<path d="M0 0 C0.33 0 0.66 0 1 0 C1 3.96 1 7.92 1 12 C0.67 12 0.34 12 0 12 C0 8.04 0 4.08 0 0 Z " fill="#FFFFFF" transform="translate(94,392)"/>
<path d="M0 0 C3.96 0 7.92 0 12 0 C12 0.33 12 0.66 12 1 C8.04 1 4.08 1 0 1 C0 0.67 0 0.34 0 0 Z " fill="#FFFFFF" transform="translate(288,143)"/>
<path d="M0 0 C3.96 0 7.92 0 12 0 C12 0.33 12 0.66 12 1 C8.04 1 4.08 1 0 1 C0 0.67 0 0.34 0 0 Z " fill="#FFFFFF" transform="translate(193,143)"/>
<path d="M0 0 C0.33 0 0.66 0 1 0 C1 3.96 1 7.92 1 12 C0.67 12 0.34 12 0 12 C0 8.04 0 4.08 0 0 Z " fill="#6D6D58" transform="translate(353,129)"/>
<path d="M0 0 C0.33 0 0.66 0 1 0 C1 3.96 1 7.92 1 12 C0.67 12 0.34 12 0 12 C0 8.04 0 4.08 0 0 Z " fill="#787892" transform="translate(316,129)"/>
<path d="M0 0 C0.33 0 0.66 0 1 0 C1 3.96 1 7.92 1 12 C0.67 12 0.34 12 0 12 C0 8.04 0 4.08 0 0 Z " fill="#49494E" transform="translate(141,129)"/>
<path d="M0 0 C0.33 0 0.66 0 1 0 C1 3.96 1 7.92 1 12 C0.67 12 0.34 12 0 12 C0 8.04 0 4.08 0 0 Z " fill="#5F5F5F" transform="translate(353,61)"/>
<path d="M0 0 C0.33 0 0.66 0 1 0 C1 3.96 1 7.92 1 12 C0.67 12 0.34 12 0 12 C0 8.04 0 4.08 0 0 Z " fill="#898989" transform="translate(143,61)"/>
<path d="M0 0 C0.33 0 0.66 0 1 0 C1 3.96 1 7.92 1 12 C0.67 12 0.34 12 0 12 C0 8.04 0 4.08 0 0 Z " fill="#464646" transform="translate(216,40)"/>
<path d="M0 0 C0.33 0 0.66 0 1 0 C1 3.63 1 7.26 1 11 C0.67 11 0.34 11 0 11 C0 7.37 0 3.74 0 0 Z " fill="#A0A0A0" transform="translate(316,62)"/>
<path d="M0 0 C0.33 0 0.66 0 1 0 C1 3.63 1 7.26 1 11 C0.67 11 0.34 11 0 11 C0 7.37 0 3.74 0 0 Z " fill="#B4BEC7" transform="translate(281,41)"/>
<path d="M0 0 C0.33 0 0.66 0 1 0 C1 2.64 1 5.28 1 8 C0.67 8 0.34 8 0 8 C0 5.36 0 2.72 0 0 Z " fill="#000000" transform="translate(348,75)"/>
<path d="M0 0 C0.33 0 0.66 0 1 0 C1 1.98 1 3.96 1 6 C0.34 5.67 -0.32 5.34 -1 5 C-0.67 3.35 -0.34 1.7 0 0 Z " fill="#CACACA" transform="translate(312,159)"/>
<path d="M0 0 C1.98 0 3.96 0 6 0 C6 0.33 6 0.66 6 1 C4.02 1 2.04 1 0 1 C0 0.67 0 0.34 0 0 Z " fill="#9F9F9F" transform="translate(248,483)"/>
<path d="M0 0 C1.65 0 3.3 0 5 0 C5 0.33 5 0.66 5 1 C3.35 1 1.7 1 0 1 C0 0.67 0 0.34 0 0 Z " fill="#CCCCCC" transform="translate(301,481)"/>
<path d="M0 0 C1.65 0 3.3 0 5 0 C5 0.33 5 0.66 5 1 C3.35 1 1.7 1 0 1 C0 0.67 0 0.34 0 0 Z " fill="#CCCCCC" transform="translate(166,167)"/>
<path d="M0 0 C3 1 3 1 3 1 Z " fill="#AAAAAA" transform="translate(239,481)"/>
<path d="M0 0 C3 1 3 1 3 1 Z " fill="#9B719B" transform="translate(189,147)"/>
<path d="M0 0 C2 1 2 1 2 1 Z " fill="#7F557F" transform="translate(256,487)"/>
<path d="M0 0 C2 1 2 1 2 1 Z " fill="#DFDFDF" transform="translate(246,484)"/>
<path d="M0 0 C2 1 2 1 2 1 Z " fill="#3F3F3F" transform="translate(153,439)"/>
<path d="" fill="#3F3F3F" transform="translate(0,0)"/>
<path d="M0 0 C2 1 2 1 2 1 Z " fill="#5F5F5F" transform="translate(367,194)"/>
<path d="M0 0 C2 1 2 1 2 1 Z " fill="#DFDFFF" transform="translate(120,193)"/>
<path d="M0 0 C2 1 2 1 2 1 Z " fill="#9F9F9F" transform="translate(350,142)"/>
<path d="M0 0 C2 1 2 1 2 1 Z " fill="#3F3F3F" transform="translate(364,108)"/>
<path d="M0 0 C2 1 2 1 2 1 Z " fill="#7F7F7F" transform="translate(322,85)"/>
<path d="M0 0 C2 1 2 1 2 1 Z " fill="#191919" transform="translate(350,59)"/>
<path d="M0 0 C2 1 2 1 2 1 Z " fill="#333333" transform="translate(145,59)"/>
<path d="M0 0 C2 1 2 1 2 1 Z " fill="#3F3F3F" transform="translate(213,53)"/>
<path d="" fill="#BFBFBF" transform="translate(0,0)"/>
<path d="" fill="#FFFFFF" transform="translate(0,0)"/>
<path d="" fill="#000000" transform="translate(0,0)"/>
<path d="" fill="#FFFFFF" transform="translate(0,0)"/>
<path d="" fill="#FFFFFF" transform="translate(0,0)"/>
<path d="" fill="#000000" transform="translate(0,0)"/>
<path d="" fill="#AAAAAA" transform="translate(0,0)"/>
<path d="" fill="#FFFFFF" transform="translate(0,0)"/>
<path d="" fill="#000000" transform="translate(0,0)"/>
<path d="" fill="#7F7FFF" transform="translate(0,0)"/>
<path d="" fill="#7F7F7F" transform="translate(0,0)"/>
<path d="" fill="#AAAAAA" transform="translate(0,0)"/>
<path d="" fill="#55557F" transform="translate(0,0)"/>
<path d="" fill="#FFFFFF" transform="translate(0,0)"/>
<path d="" fill="#FFFFFF" transform="translate(0,0)"/>
<path d="" fill="#555555" transform="translate(0,0)"/>
<path d="" fill="#FFFFFF" transform="translate(0,0)"/>
<path d="" fill="#FFFFFF" transform="translate(0,0)"/>
<path d="" fill="#FFFFFF" transform="translate(0,0)"/>
<path d="" fill="#555555" transform="translate(0,0)"/>
<path d="" fill="#000000" transform="translate(0,0)"/>
<path d="" fill="#FFFFFF" transform="translate(0,0)"/>
<path d="" fill="#000000" transform="translate(0,0)"/>
<path d="" fill="#7F7F7F" transform="translate(0,0)"/>
<path d="" fill="#FFFFFF" transform="translate(0,0)"/>
<path d="" fill="#000000" transform="translate(0,0)"/>
<path d="" fill="#FFFFFF" transform="translate(0,0)"/>
<path d="" fill="#FFFFFF" transform="translate(0,0)"/>
<path d="" fill="#BFBFBF" transform="translate(0,0)"/>
<path d="" fill="#FFFFFF" transform="translate(0,0)"/>
<path d="" fill="#AAAAAA" transform="translate(0,0)"/>
<path d="" fill="#000000" transform="translate(0,0)"/>
<path d="" fill="#7F7F7F" transform="translate(0,0)"/>
<path d="" fill="#FFFFFF" transform="translate(0,0)"/>
<path d="" fill="#FFFFFF" transform="translate(0,0)"/>
<path d="" fill="#000000" transform="translate(0,0)"/>
<path d="" fill="#000000" transform="translate(0,0)"/>
<path d="" fill="#AAAAAA" transform="translate(0,0)"/>
<path d="" fill="#7F7F7F" transform="translate(0,0)"/>
<path d="" fill="#7F7F7F" transform="translate(0,0)"/>
<path d="" fill="#7F7F7F" transform="translate(0,0)"/>
<path d="" fill="#AAAAAA" transform="translate(0,0)"/>
<path d="" fill="#FFFFFF" transform="translate(0,0)"/>
<path d="" fill="#000000" transform="translate(0,0)"/>
<path d="" fill="#000000" transform="translate(0,0)"/>
<path d="" fill="#555555" transform="translate(0,0)"/>
<path d="" fill="#555555" transform="translate(0,0)"/>
<path d="" fill="#AAAAAA" transform="translate(0,0)"/>
<path d="" fill="#000000" transform="translate(0,0)"/>
<path d="" fill="#7F7F7F" transform="translate(0,0)"/>
<path d="" fill="#7F7F7F" transform="translate(0,0)"/>
</svg>
